<mxfile host="65bd71144e" pages="5">
    <diagram name="v2" id="QdjAfEzboUnvkhoe0ucc">
        <mxGraphModel dx="996" dy="571" grid="1" gridSize="10" guides="1" tooltips="1" connect="1" arrows="1" fold="1" page="1" pageScale="1" pageWidth="850" pageHeight="1100" math="0" shadow="0">
            <root>
                <mxCell id="ZyhSuW8kDFmmL4GDzTfD-0"/>
                <mxCell id="ZyhSuW8kDFmmL4GDzTfD-1" parent="ZyhSuW8kDFmmL4GDzTfD-0"/>
                <mxCell id="ZyhSuW8kDFmmL4GDzTfD-2" value="" style="rounded=0;whiteSpace=wrap;html=1;strokeColor=none;fillColor=none;" parent="ZyhSuW8kDFmmL4GDzTfD-1" vertex="1">
                    <mxGeometry width="1000" height="400" as="geometry"/>
                </mxCell>
                <mxCell id="ZyhSuW8kDFmmL4GDzTfD-3" style="edgeStyle=none;rounded=0;orthogonalLoop=1;jettySize=auto;html=1;exitX=1;exitY=0.5;exitDx=0;exitDy=0;entryX=0;entryY=0.5;entryDx=0;entryDy=0;" parent="ZyhSuW8kDFmmL4GDzTfD-1" source="ZyhSuW8kDFmmL4GDzTfD-16" target="ZyhSuW8kDFmmL4GDzTfD-7" edge="1">
                    <mxGeometry relative="1" as="geometry">
                        <mxPoint x="525" y="191.7750206607193" as="targetPoint"/>
                        <mxPoint x="330" y="105" as="sourcePoint"/>
                    </mxGeometry>
                </mxCell>
                <mxCell id="ZyhSuW8kDFmmL4GDzTfD-4" style="edgeStyle=none;rounded=0;orthogonalLoop=1;jettySize=auto;html=1;exitX=1;exitY=0.5;exitDx=0;exitDy=0;entryX=0;entryY=0.5;entryDx=0;entryDy=0;" parent="ZyhSuW8kDFmmL4GDzTfD-1" source="ZyhSuW8kDFmmL4GDzTfD-18" target="ZyhSuW8kDFmmL4GDzTfD-8" edge="1">
                    <mxGeometry relative="1" as="geometry">
                        <mxPoint x="330" y="295" as="sourcePoint"/>
                        <mxPoint x="525" y="226.875" as="targetPoint"/>
                    </mxGeometry>
                </mxCell>
                <mxCell id="ZyhSuW8kDFmmL4GDzTfD-7" value="" style="shape=image;verticalLabelPosition=bottom;labelBackgroundColor=#ffffff;verticalAlign=top;aspect=fixed;imageAspect=0;image=data:image/png,iVBORw0KGgoAAAANSUhEUgAAAHgAAAB4CAYAAAA5ZDbSAAAAGXRFWHRTb2Z0d2FyZQBBZG9iZSBJbWFnZVJlYWR5ccllPAAAAyRpVFh0WE1MOmNvbS5hZG9iZS54bXAAAAAAADw/eHBhY2tldCBiZWdpbj0i77u/IiBpZD0iVzVNME1wQ2VoaUh6cmVTek5UY3prYzlkIj8+IDx4OnhtcG1ldGEgeG1sbnM6eD0iYWRvYmU6bnM6bWV0YS8iIHg6eG1wdGs9IkFkb2JlIFhNUCBDb3JlIDUuMy1jMDExIDY2LjE0NTY2MSwgMjAxMi8wMi8wNi0xNDo1NjoyNyAgICAgICAgIj4gPHJkZjpSREYgeG1sbnM6cmRmPSJodHRwOi8vd3d3LnczLm9yZy8xOTk5LzAyLzIyLXJkZi1zeW50YXgtbnMjIj4gPHJkZjpEZXNjcmlwdGlvbiByZGY6YWJvdXQ9IiIgeG1sbnM6eG1wPSJodHRwOi8vbnMuYWRvYmUuY29tL3hhcC8xLjAvIiB4bWxuczp4bXBNTT0iaHR0cDovL25zLmFkb2JlLmNvbS94YXAvMS4wL21tLyIgeG1sbnM6c3RSZWY9Imh0dHA6Ly9ucy5hZG9iZS5jb20veGFwLzEuMC9zVHlwZS9SZXNvdXJjZVJlZiMiIHhtcDpDcmVhdG9yVG9vbD0iQWRvYmUgUGhvdG9zaG9wIENTNiAoTWFjaW50b3NoKSIgeG1wTU06SW5zdGFuY2VJRD0ieG1wLmlpZDpFNTE3OEEzMjk5QTAxMUUyOUExNUJDMTA0NkE4OTA0RCIgeG1wTU06RG9jdW1lbnRJRD0ieG1wLmRpZDoyQTQxNEFCQzk5QTExMUUyOUExNUJDMTA0NkE4OTA0RCI+IDx4bXBNTTpEZXJpdmVkRnJvbSBzdFJlZjppbnN0YW5jZUlEPSJ4bXAuaWlkOkU1MTc4QTMwOTlBMDExRTI5QTE1QkMxMDQ2QTg5MDREIiBzdFJlZjpkb2N1bWVudElEPSJ4bXAuZGlkOkU1MTc4QTMxOTlBMDExRTI5QTE1QkMxMDQ2QTg5MDREIi8+IDwvcmRmOkRlc2NyaXB0aW9uPiA8L3JkZjpSREY+IDwveDp4bXBtZXRhPiA8P3hwYWNrZXQgZW5kPSJyIj8+R7ClIwAADR5JREFUeNrsnQuwVWUVx79zeWUXNWB4RIhXCCNUVLiCQJoBlqCIYaIBUpRGltMICE6JxojSjIKlhTmkgmjkoClqcBkTHeSNIAooQkTIw3gooAKCXL39/+x1bvtezjl373P22nufc741s2ZzmXu/x/rt/T3Xt75EVVWVsVK4kiiESrRs3qI1Hp2hX4e2g5ZBW0GbiTaGNqr1Z0ehB6Efiu6CboVugW6Grt29d8/7FnD4ML+MRw9oL9FyaFOl7PZBV0GXiC4D9MMWcPBQ2+IxCNoP+u0UX2NYwq9+IbQC+hxgv2cBZw+1BR5DoddCu8e0mCugs6FPAvYeC9gb2D54jIReBW2QJy3hMejz0IcBeoEFfCLU+nhcBx0rg6V8lrXQ+6BPAXZlUQMWsMOg46HtC2yG8m/o3dJ8VxYdYMC9HI/J0I4FPhXdCB0DyHOLAjDAnonHA9DLimzNYT70FoDeWJCAAbaB9LF3RjjNiVo4zbqLfTRAHysYwIDbCY9Z0HONFcpb0CGA/E5eAwZYpv8L6Wu/ZLnWkCPSok0F6Kq8Awy4XP99DHqNZZlRnoGOAOSDeQMYcDvgMQfayfLzJBugAwH5X7EHDLjfMs6qTlPLzZfsE8iLg0y0JGC4g/FYYOFmJbTZArFhYFIvQLgj8JgJrW9Z5cTj6salpTsOHT60JjaAAfcmPKaZAnEgiFhow4GAvAeQV0UOWL7caZZL4HI5IG/P9UuulyPcwdIs2y9XRwYA8ruA/Hboo2gZLXNA1dByUJXPoH2yHV0nsoTLee5yO1oOdQp1YTbz5EQWcLlCtRL6TWv3UIWLId38rniV+ITLF2K6hRuJ0ObThYHOIAsd/s143JpjQQ9AOWigLzK3DQt9E4L1ZdO6A1qaY3259PsBBl0rA2+iZcvvDZP7Xu4Vbu8GpNuGgwjjOAAMhJ6U50A/Nc5SLTf4F6CuO1x1HYDHCzmmzz3lrkj37cAAy2b96yb3/VwOFlql2+xGPqcYx0eLXpX55ny3DvqwcXywPs5gx93QJjnmxf3kC7w4DXjtg8eZYDbrKzIVioaBPgRlXnRyX5EHYNlc9kOZO0vZP85QP9a9IoA8aZ/bAhlk4a37Bh53BGSM17z+IozBJo5HVK42znmhuAnL9AOZvsz38XeLAsp/vLDJKF42Bh40wflQ+VpbFU+HZ1GRuTK4uyNDWd6Twdu70J3Q90U5mDskfeNR+d1G0tdz0MPDaa1Fv2YcL8+zoKdn6AMnQe9F+Y5kYYPXA7JlI2Hzvaz7YHFt/UdABWLzVJqLs5kssDwKPRu6VFoEfhHrgvaIkPn+OVCu2F1snINufIFuyMUzUvphvnBBndq4IpNLbiJDQepLhc4MqCDbUJDTAzA8y5xAWl+E2R4j3xJpVb4IIK3teLQJqGicgnVK51yfqYkeFiBcyq4gEpFmO/RT6wG/UP8NEHAHYTXD8yBLmpHxCvNDK44EfcaYA66GfkbRPAjW3nLIGyGra/0AvlWhENYv+v+isVo31hNgfOp9jc4q0umWa7W0VUjzHGFX5xf8c62BKApwcrGTFRu0VEr+poyAJWzClUqZc3rTxX68x22g5eI0QBim/YKHGd2wCX0tX1UbNBCGaQEPVq7cAMtX3QaDUwLGp80AYtrRbO62fNVt0B0s26f6gq9Sznji7r17nil2umKDu5SzGZgKcD/FDJeHUKl8koliEy3p7x7ZJsMD0ttCI7TC55yj4c3dYLnWmLFwW5JeIBpnubil2ZRhF5NfcC+jFzdjqoWbsqnmvvVUpeQbCdPqJrqnUkbcEL/H4kwrk8RGGtLTDbiXUiZPxDWGY0y+YtrmCaXka3zBXZUyecRijMxGx5km0NnTD2mHQgZb8IbaLUdvAy6GPWynkHQbfsFa/sfzLDrPUqGUbmcC7qCU+GLLLXJbdSDgMqXEV1pukduqTAswXWO3WW6ehbaq1ALcSiHh7RhgfW65eZ4uEe5OhaRbEXAzhYQ/sdh8ywGFNJtpAf7I8vItB7UAa/hJ1bO8fIvGpsPJBKwRJaex5eVbNNyKG5YoFbbU8vItp2gkqgXYxs6Kic20ALfyGw2mmEVOLrbQAlyp9Da2tug8C22l4a5cWaI4pTnDcvMs7ZTS/ahEaYKtWehCFK2P4QAB71VKvNxy8ywXKKW7l4B3KiXe03KL3FY7NQGfJ+64VjKPoLlm0FkT8GalxLlc2dsirFN6G72l3c0EvEmx8IMsvzrl+4ppb0pIMNDtShlw25CxKQ9bjimbZ3ZhjD6kdTD+tBKJhvqhUgYs+FCLMq0MVYS7j2yTS5WrFSsxOhlEzEqNr5fbg6MVszgeNjJp+KWKGfGQ1Y8s0hPkeqN7+/kyN+AlypWZJLGgrZjquNiTlLNZ7AbMH44qZkbHvvst2mr5g9FxdkzK0RqAJSzuIuVK/RRv7hD79bZgkJQRytksSoY6dg9+Xgyhfo+ggj2KGC5P/IVxDWB1CGg34OdDyJgh/Oajot2LEC7rPM+Ec+nInBMA45NmxPQwjptwgPESKvzdIoLL+Cf/NEp+V7VkpbA84Qum/DWkOrOiFaj4BGi9AgZbD8qwSXMVFzRqyyz3D7UB/80454rCEOb9W+hCGOHcAoTbRaaft5vwbmc9JgxTA8anvdfdfockHHishkH+BG1bAGDPgP7FOCtJYY815tQOmZFIUcBL8HjV54oJR21MmNECuHnNLbD6Wb6B7Cb+jIKuzCOotONFxonUy1CCUXU7vWG3VzMClgLzCrvzPSTI20NOrX2SEH/fHI9R0DEme39fhl56Sl6eNXJXQ6z6V+Pc68SgY4yQH7WT4Vuw0Xm1/zORYTLuNfrLb5Dw72r9/SJZSZkpX+T5ORae18G9Jq0F7x1ajzwPhAyU26q8zqdcWinC/UqM3rnrYZMnvQJm88pAXV6DqDwAvQ0ZHHXN+RhprUJcUmYbV3i9gITbnAxewuvvfh30NTtyMcmD0o/SQ/TUGPcStEPHVFfrZLo3iTtAM3xkwhdiCDJZ40qD3gq3SBPG5vbigCvGLuIid54BQ+4qI+FGJt4yAjaYkW6qkk7YRK/zkQm3vpbAKO6r1ugOxGtp2TcMMsGHaxqjBVdmFdwnHxdzuOulK0wpdV1txxUYv+GQeD9SXxhnaYr0+sukP5BBBbSL9g1oMpjiix7XW8/7syvMtNiQ6Q2uMP7vLuRa69/ddwewH4ZyqY59xOMBVey+MK63kxnCvTGFOy8T3DoBi7AP9btXzL1Od4g+TnHYn02U9DbmWDE68z0boiEZxPtIzOCSya/q+qUSD28wR2h3ZlGAAdIkG/Gq5IrVOJne8N6CXBzuX0E6oV2VJzebvhIzwBOEjcn1C6bQG2NVFoWY4rq1cwN0oUybOJfk1bXvZFm5pREYNE6R+zj4m+zlF0s8vsHsO4cZ/xdMdjQn3jLC+3i54/FH4xy6mgL9zEeaHJm/FIFR4xLUnAyGpbtONtsv2MilyKOymcrU+vll6Z8/ZdMN5T2JXOa7XeactZ3kPzCOOxH77wtlQv9mBIbdGhPAoyRavCfxvY2FJpbLYX6d2XuiUMvSpEe402ShZCx9ifB/TYyzf7ofP38iv1cuCyYvsqkP26rIvwyP/0QMdxbq7sv22Tikj4Su9fk392fY2OdLxrXqm6Fnyf/xanVueKwQ2EZeArYGN0Zk3IMRw10ntjeqgPEGcXmQ9xv6OTjOpnVCmvS24HGacc4wrXb1M9vki0lO0XgX0GXQn0Rk4MoI4bKbulJG874ka08D8Y5cYPw5kf0ShXzI5KGgvtw52h/RoCrlyqBWE5388pZJn+hnNWkqDDVZdmryTaIoM207JFu4OQEWyC/gMdwnZPajbwDypXkGuDQCuMNh45xcqAJxBpOtxceyeGHoljPdOL5Euzzm9VU89oQdjzrkUTThjkQdc76RJRGgATh8n5lDq8Blt/Uy3zwg82GWj+GOuXFRJqPrptAmEXh0hAU4+eUG4sIcWAhbFghGYFC12SY77/32xrsHSdw34HMZUF0nXV8gEujBbBSMW4vfMY6HpaacVIBwabM+QcINHLBApo9UN+ibxopX4cJRt3SrfbECLJB5NoabCo9bdnUKXaN6us8TxR6wQD4E/TH+eYNxnOOs1BTa5EbYaLisDpq8AuwC/ahxnO5WWKbVQlt0CWIaFDlggcxoevToGG387ykX2iiZ26O9YJNNYWQYWngjLkxAf28c78TnihAu69wJNpgS5iJN6PGrOJiA0ke6j3G2BAtd6Ld9KesM3Rp25pEFKENl6cTGTfwfGv/uMPkQkmmD1K0cdX05qkJEGoGOJwahPNLCQ108drnc45/ui6C4Xl2HV0hdzmbdwvDdziSxuxmlZfMWdA5InrNNtWK1GkYrj6hs9Cztmgb+08Y517w0TvaM7dU3ssF+jXH8v3pIWXm4+WdaiwIeylSGB0/vX2KcTQG2ONwUeBpl2h9HOyaqqqqMlcIVGwW2wOV/AgwA+MQnGo+UarEAAAAASUVORK5CYII=;" parent="ZyhSuW8kDFmmL4GDzTfD-1" vertex="1">
                    <mxGeometry x="310" y="60" width="90" height="90" as="geometry"/>
                </mxCell>
                <mxCell id="rgny3POMjfnxjg8cLhlA-2" style="edgeStyle=none;rounded=0;orthogonalLoop=1;jettySize=auto;html=1;exitX=1;exitY=0.5;exitDx=0;exitDy=0;entryX=0.16;entryY=0.55;entryDx=0;entryDy=0;entryPerimeter=0;" edge="1" parent="ZyhSuW8kDFmmL4GDzTfD-1" source="ZyhSuW8kDFmmL4GDzTfD-8" target="rgny3POMjfnxjg8cLhlA-5">
                    <mxGeometry relative="1" as="geometry">
                        <mxPoint x="850" y="105" as="targetPoint"/>
                    </mxGeometry>
                </mxCell>
                <mxCell id="rgny3POMjfnxjg8cLhlA-6" value="&lt;span style=&quot;font-size: 12px ; text-align: left&quot;&gt;terraform&lt;/span&gt;&lt;span style=&quot;font-size: 12px&quot;&gt;&amp;nbsp;plan&lt;/span&gt;" style="edgeLabel;html=1;align=center;verticalAlign=middle;resizable=0;points=[];" vertex="1" connectable="0" parent="rgny3POMjfnxjg8cLhlA-2">
                    <mxGeometry x="-0.7934" y="1" relative="1" as="geometry">
                        <mxPoint x="78" y="1.02" as="offset"/>
                    </mxGeometry>
                </mxCell>
                <mxCell id="ZyhSuW8kDFmmL4GDzTfD-8" value="" style="shape=image;verticalLabelPosition=bottom;labelBackgroundColor=#ffffff;verticalAlign=top;aspect=fixed;imageAspect=0;image=data:image/png,iVBORw0KGgoAAAANSUhEUgAAARgAAAEYCAYAAACHjumMAAAydklEQVR4nOydDYgdV3bnT82IpRIEWwKz8wxGLtUYRmaGdos4WGJadDWuME9kBrUYZ2WPO0hiJm2JJFgGx6omztZ9xLNd9jpIZj1Y7jhYYtuxRBzUghn0ZrdCV6c1SCYe1O51kMKa55IwzAsYpnZXJJVFUMvtvs9qtfrj3Vv31sd75wdNHM2rW7f7X+/Uueeee84W6AFMPzUAYDf7+QYA1Og/s5+1SADgKvvvGwDwzwDQjFztao7TRpCeRyt6AjwYjrcTAB7TLXtQt2z634+wH13ibT4HgE8BIEpa4adJK/wEAD6Og0Yk8R4I0heU3sBQo2I45AQA2Bt4JHmwAACnIlc7W+AcEKRSlM7A6NbwVt2yn9Qt26Y/APAtACjTUi6my6qkFQZJK/xZ0go/Slpzd4qeFIKUkVIZGNNPDwPAJIuhVAXq2bwQuVpY9EQQpGwUamB0a3iLbtlDhkMOAcDTkmMpeXM1Dsg5AJiLg8ZC0ZNBkDJQmIFhOz/vA0C9qDko5EzkakeKngSCFM1Xirip4Xi7AeCzHjUulMOmn84ajldkUBpBCic3D4Yth75vOKTeA8uhbvkCAN5pT9k/SVpznxc9GQTJm9wMjOmn7zPD0o+0AWBf5GoYm0H6CuVLpNr47PdNP/2sj40LsF2xa2zZ9O2iJ4MgeaHUgzH99CQAHFd5jw1YeRxgNTsL3Aqn83omcrWZgu6PILmhxMAYjmcaDnlLcRA3BoBP6E8ckPaKM0VRt2n9huMZzNDQn68bDnmEGZ9B1VnDSSt8M2mFfxIHjUTlfRCkSKQbGJYs967scVewAACNPDwA00+fZx6YKmMTxQHZEweNtqLxEaRQpBoYw/G+YzikKXPMFVDDMhG5mqrx18X000MAQBQZmtORqx1TMC6CFI4UA7NiC/qUxNgGXTo0k1b406QV/m0cNGJJ4wpjON6w4ZBRVhbicYlnpGbigDQwAxjpNaQYGLaUOCVjLAZdOhwo8xfO9NM6y0Q2ZI0ZB2RXmX9nBOHlq1kupp7LQyeiPwaAVwDg32WcC/VYgjggL7anRo4lrblSxyXioPEpALxBjeGWbeZ2GZ4bOz3+i7L/7gjSLZk8GMPxDhrO0gG/rNC39kjkaoUvg0Qx/XQSAFwZY6Eng/QKwh4MC+ieBoCtGe7/OQD85/aU/cdf/M2RyhoXWPZo/g4A5nTLTthWt7BHxzyZv01ac7flzhJB8kXIg5G0FR2zLdobGccpHZJ20+jf51HcwkaqDPdRAXZCOKtxoV+aHb1oXGDZm/k5ABxgcSVRDMMhByVOC0FyR8DALGXoZmGmPWXbVY63dEPkajNJK6yzDGNRXjYcz5Y4LQTJFa4lUsazRX17Bsf002vs+IEoI1iSE6kiXXswtfHZ72cxLkkrHOtH40JpT9nfo55bhiEuGY73mMQpIUgudO3BsJILIqny1HPZg7VQMgfHZyJXOyB5SgiilE09GN0a3mL66QVR48I8l743LrAclzmTtELRXJnvmn76nOQpIYhSujAwNl0ajQqO/0x7auRvBa/tSdpTI68CwBmBS7cAwGnW3RJBKsGmSyTTT6lLf1hgbOkuPTv/89yKei0xywKeiwNypkrtXTMsOd3I1V5VMCUEkc6GHgyr/i9S6rLdnrKlpM0bjvckXaKZfvorALjEvKnOF9NgLWU9wyH/y/TT2dr47CEZ91VN0gp/JJgnc5QVykKQ0rOuB8P6Fn0mcFqYehU7ZOS5mH5KqPEQuHSBncYutUeTIeiLfZeQSrCmB6Nbw1sESxF8HgdkjwzjUhufPSloXCiDhkPmTT89UeaYReRqZwBgWuDSw1g8HKkC6xgYe0iwnu6bMtL/TT89qVt21mLhDwGAbzjkepl3X+KA/JnIdYZDfiR/NggilzUNDOsVzctCe8p+O+uEDMf7joJOBG+afnrJcLxhyeNmhi3jRgXiMXWMxSBlZ80YjOmn/8rZeZF+OR6UFHe5kGFbvBsacUD8slXzF4zHYCwGKTX3eTDsQedt6xpKPLyo+nCfZzhkUvE9uGHxGN6g9CgLxiNIKbnHwOjW8FYA4P7yxcFS4anMmH76tMwatxtw3PTT66afero1/FAO9+uKpBW+w3kJ/VtlPd2OIMpYZWDsJwVqy0Zx0LgoaT55BmN3AgCpjYfzpp8qbbLWLUkr/InAZU+zGj0IUjpWGxje5UkSB0Rmtu5uiWN1C/1yflYbn32r6C8qa81yVODSJxVMB0Eyc0+QV6BuidTjAKafprLGysDTkaudL3ICAscIzkWu9ozCKSGIEF96MCwh7Vs8Fyet8KdKZtUdYdIKxzJWjFuLadNP3zcc75BuDfMGu6WQtMIPOC8ZUjQVBMnECgNDTvB2KkxaYaEnpdtTI+9FrvYoAIywIwoy2LIc1yBnauPhBUljcpG0wp9xXvKQ6acqt/YRRIiVMRje+MtCGdq5wvIWbyh44nsz6nTZaDierHa43SJSP6d0SYQIsmRg2PKIN8A5oWZKYkSudjEOyINJKzyVsZr/agYNh/yD6acndGv4AYnjrgsz3Lw1Yw4XtaRDkPXoeDC89V4XIlfL2vdHOnHQaLenRl4AgEclx2aWzjXlvKXd4Py8oVt2aQ92Iv3JkoHRLZu34j3vw58rkatF7Sl7LwAQALgqcWj6Bb7OzjUpPc1MfwcA+ITzsm8qmg6CCNExMDxvvrgK3QGS1twXkas1IlfbQ70PiUPrywcNyWXTT4nheCqXJR9xfv4RRfNAECE6SySeB5P3rVo4katNxAEZAQDZ2+qe4ZBZw/EOsho6UokDwhXsNRzClWaAIKrpCwMDy/GZMHK17wHAEclB4N2GQ87VxsP/JnHMDh9zfr4056oQhPIVdhq3azc/Dkilm7GzU8sqtrSfZrWDZR7W5P1b572djiAb8hWB8z+Vb1gfudr5OCA74oAcFyiRsBGjAHC9Nj4rJQCctELeuaGBQUqFiIH5Z0VzyZU4aERx0HgjDsgeAJDZ97mmW/abMgZKWnMJ59x000+z9MBGEKlQA/MNzmtKXamflzhotCNXG5F8rmnQ9NO3JAV+eeeEXgxSGr7C+0CWvRWIKCvONZ2SNORR3bIflzDOP3F+voiSFwiyJl/hPCJQqjq2KmhP2X8SB6QOAKcB4HaWsXTL/l0JU8K+3khl4TUwMrNiS0nSmrsTB42fR652LA7I72Q5pc3av+TNwwXcE0HWZNPm9/1MHDSoQd2VIe4k49wSrweD5TOR0oAGZhPYuabfZueaPue8PHPAVWK3BgTJHTQwXdA518SWTDxg+QSkr5F+fqYX0a3hrbplf99wyIucl95RNCUEqQRoYDaBpf5fEGwIx7ukWuv+GFNBKssWtvXcrSvfNwWNDMczdMv+QwB4MUMzOBmJe7wGpud3+pDqsIU9kN2+nfsiS9T00+MA4GXtMhkHRMYRBN45/JuEeyKIFLiDvPTNrmYq5cD0U2pYTkpqYSsjSQ7PFiGV5St41mWZ2vjsftNPr7DtaBk0k1Y4J2Ec3sQ5mQc3ESQTWwROR9d6oWRDB+qRGQ4RDeKuRztytX2SxuL1YPBoAVIaqIFpsnhDt3y9F96SrA/1d9jWs8xatknSCkX6S9+Hbg1v5TQwtzExDykTWyJXu2r63beENhzySByUuqnApph+ehAAzikYmnoPR9pTI1K8CN2yeQ3fFzLuiyCy6AR5efI1KrtVbTjeE6af0uXQtOSh20krfDEOyJ7I1WQuUXhr9fTM0hXpDTqJdp9yFIyu5K6G6aeEcynYLU2J8ZZ7MBzC+7fuyVo9SHXpGBieB7NymaWmn54EgOMKhg7jgDyjYNwOXH/rqhdkR3qPpSVS0go/5bnI9NPnlc1IEro1/JDpp57pp9cVGJerSSscjVxthPWRVgVvdTrcQUJKxZIHk7TCT3SLa5eWfmHfUDarjLDC1xcUeFvUQ9gnOc6yJux34J0/bx8lBFFKJ8j7S87rTNNPDymYTyYMx9tp+um7AHBNsnH5AgBIe8r+7TyMC2OS8/NRr9ZLRqrLkgcTB43PDWepTSlPUJEAwFl1U+PD9NPnWB1d2URxQEby/PKyHJ0652Wl9SiR/mXlWSTeavqm4XjDkufDhW4NG4bjPWf66SUAkNKLaAVR0gr/KA7Io3l7BgLFwpM4ICryehAkE9rK/8f0019zHvI7FbnaC7ImY/pp9xl/ywHNREGbDjrmMdZithCYweTxYK5GrrZH4ZQQRIjVBaducH5hi+zBoyof53DkaucVjd0tuHuE9AT3lGtIWmHAef3jpp/yxgo2orBzNEkrPB0HZEfRxoUFqblKRUiqO4Mg0lltYH7GeT31gN43HE9WcesivigRAOxoT40cK3oXxnA86pUdFrj05wqmgyCZWW1gPhJwtw3dsp+VNJ+3JY3TDVdXbD2XYntXt2yRrX9fcbIfggijrf4H009tAJjlHGchcrVdMiZk+ulnORxH8CNXm1B8Dy5YcfFfcbY6iSJX26FwWgiSiftKZkauFgoUjh40/ZQ3MWxNklaocrt1hp14LpVxMRyvxjKPeYzLHQA4onBaCJKZr67z71t1y+YN3g4BwFzSmsu03NiyzfxH3bJ5+w9tBl1CPBO5WiNpzWVuJSKb2ng4L7Bz9Pf091E0JQSRwnpFv4VqyRoOOZhtOktZxW0Fb+bDkavNSB5TCobj2YJb7rhzhJSeNQ1MHDQWAEAk0WzMcLzvZJ1U5GpnklboZxzmRhyQw3FAHoxc7WLWOanAcDzdcIhIjZokDsh7CqaEIFK5L8i7EtNPZwWLYR+Q4TGYfjoKAO8L9HieiQPyTBw0kqxzUAnLeRHZlm5Eriar+wGCKGO9GEyHOd2yxwDgNznHHdUt+/LtX569mWFu1JO6QY2Fbtn/jxmZBzZY1n0BAP89Dsjx9tTIj5PWXKn7QtfGZ3+4ZZv5nwQu/ShyNVlpAQiilA09GFh+y04CgCsw9o3I1R4Vm9baGI5nGg6hb/zHWLYr9VA+BICFOCDNsnssHVi/6esCnhksL/sapTnFjiAbsamB0a3hh2rj4T8INlxbaE/Z3yvjzk1R1MZnv61b9geCf8+wPWXvS1pzlTCkCLKpgYG71dWuCd5jJnK1A4LX9hwZEgnbkas9qGBKCKKMrnpTsypuotuio6afigQyew4W1BXNUi7lNjuCbMRmQd6VfKpb9g/WKPHQDaO6ZSe3f3n2FwLXVh66LHrg9878fYb2tFF7yj5y59c3/4/kqSGIUrpaInVg28YXMtzvTORqfZXezgK6VwRjLsCykHdgS1ikinS1ROoQudpM0gqzlKY8bPrpZ7Xx2SczjFEZauOzP2S7RaLG5dM4ILvQuCBVhcvAwPJhxD/J2EHQ1C37p70clzEcTzf99F3dst8R2YruEAfkxaJr1CBIFnhiMEuwBLbzumVvBYDHBe+7BQBGDYc8AgDXktZcz7yhDcezDYf8Jf39MgxzGwBeak+NYL4LUmm4YjCrYY3ks3yROoyW9bxQtxiOVzMccklSreDS1atBEBG4l0griQMiq1zAuSovmUw/NQyHvC/JuMRxQLDHEdITcC+RVpK05toAcFG3bJudExKls2Q6rFu2vmWb+Y9VyFY1HG/QcMiJLdvMcwDwiIQhL8cBGWYlKxCk8mRaInVgXzTRTN/1OBq5Wp41ernIcBJ6PWLW5A2NC9IzSDEwcNfI0GXCTlljsu6KH7BuBwtFFrc2HM/ULft3dcv+Lqs+x9VaZANuA8CbdFmExgXpNaQZGLgb6Lwu8cu3mjOsFkpuW7fsHNakQK/objkeuRrGXJCeRKqBgbtG5iAAvJwxLrMRnwDAR3Gw1LD/YwBoJ60wyhK30a3hrbplPwIA3zAcMsjODO1W2OHgU5bnUundMwTZCOkGpgPLB+Ftf5KVkLW//acV/Z0WVmbCstR9k3lZ1JA8zP6vqla0axHHAdmFSXRIr6PMwMDdHkuXsmSz9iDUqJQi/Z/pY68o4LV7Ha2osW6z4l4Ra7Z/o4Ap9x1V10ipgYFlT+YxwyEEAL4reBK7V6Diz7Sn7B/nXYCL9V36tuGQx5mntlPC0i9mS9VP4oBcpQ82K3GKCNCrGik3MB1MP30OAE7ndb+SEUauNpL3Tdly8KSkbOtuoA80waB19/S6RrkZGFi20jsNh+wHgKM5tIctAx/FAXkzaYXn80ocNBxvULfsZ3XLfqrAvzF9iD+IA/JB0grnqpA0mSf9pFGuBqaD4XiG4ZCTkhPVygQV69W8W4soSP6TAXXN95Uh5lQG+k2jQgxMB8Px6JrzRyzHRLRmSlm4AwCX6XIoDsh7cdD4NI+bUmOtW/bzumUfV5h/lBVqcK8mrfD19tTIz4qeTN70s0aFGpgOKzya0RILsBERAByJXC3Xdq6mn9IH1qvY36wSTfFk0e8alcLAdDD9lIrwFgA8XfRcOCiktILpp88DwKm87yuJviidihqVzMB0MBzPBIAnDYc4ADAEAA8VPSdGwvINFuKAUG/l53mfj9Kt4a/XxsNXAOCpim/7X40DcjwOGh8WPRHZoEZ3KaWBWQ0rNj7MgmNFuJp0CfRGHJBzRR5IZB7etR7agaMGew9ri9MToEb3UgkD00G3hnXdsncCwDeZdyMzGn+b9be+QQ1KHJA281Y+LkNKf218dr9u2ad7IBi+GvoAN9tT9jFWX6iyoEb3UykDsxKWQs171ulqJ1oOAP/G/i1cfV6pbLAT3VdyOHIRrVHQvSa5BMd6VLoDKGq0Nn1lYOKA1OOg8XN1s5KLbg1vrY2Hf84SE2U9uJ04UsTSx5dOo2+WQs5S2elD/DXdsgfpD4uPbZU0L2BHKSrlyaBGG9NvBsaNg8ar6mYlF9NPTwCAL2k4+tCeiwPSkLXkY+kFxwHgeYmxsUp5MqjRxvSVgQGA05GrHVM0JamwYGGWpm0rocu/ZyJXa0oY6z7YEZC3MrTGXUllAr+o0eYaZeoqUEGcoifQDbo1nLXdbIerSSs8HAfkQVUPLix5ho0bkauNxAHZkbRCnz2AotBlxhXD8Z6QOEXpoEbdadRvHgxlJO+MW14knFdps7MlhXgB7M1+idUuEeVq5Gp7JE5LKqjREptq1G8eDOWkbg2XtgCW6aeHAGBM8PI7AHCmPWUXusSIXC1uT9nfAwDCtv9F2E2/xIbjlU4r1OhLNtWoHw3MoG7Z3yl6EmtB18mssLlo9ufLkasdSVpzheftJK25LyJXa8QBEf0iUg6zThWlATW6jw016kcDA4ZDynZcfgnDIX8qeOkXAHC8PWX/heQpZSYOGhfjgFA3ekZwiNHa+Ox+ydMSBjVak3U16scYTIddZdqpYJXNPhO5Ng7I4TholL5RfoZe5oVUBFwNarQha2rUlx4M42TRE1jFu4LXUSN5XvJclBAHRDQHaTcLShYNarQ+a2rUzwbGptZat4ZlZjkKYfqpJ5CfcAcAfOraVqW2Shw0rsYBGRUIKurUWy0yOI8abcqaGvWzgYHltWP4wyInwEpTiJTW/GnkahNVeXA7sEZzrwtcOqhb9rCCKW0KatQ192nU7waG4hqOlyUXIBO6ZYsEMOM4IC8rmE4utKfsn7ADp1wYDnlKzYw2BjXqntUaoYEBqBkOuWI4Xp6dHb9Et2yRgNqROGj8o4Lp5ELSmvsCAPYJZJMWZWBQo+65R6N+3kVazQ1WhzS3nSV2PuQa5yncZuRq+xROq2tW1Od5mP3T/05a4UdJa66r9XttfHZSt2yX87bH8+y7hBpl06jK5fxk03mQduVlZAyHnOA94h8HpBTN69iOwewaPb0jADjQTQpA0grfFnh4CQDkaGBQoywa4RJpFYZDRLciRRBxvecUzIMLVnfk2hoPLrBSkbPdLDlZSQLec2EGy6bNC9Qog0ZoYO5n0PTTX5l+6unW8AOqbsJOovLmdhzPu8j4auiDazjkbzapOWsYDnmrm3NEcUCOsVIFPORy0ho1WiaLRmhg1oZaf1IbD+cVJnjxBpXbRfd8Nv100HDIdVYlbTN2Gw7ZtP0Mq9LG9XsZDslr1w81yqgRGpiNoW7er2rjs2/J3mUyHMI7XiDz/rzUxme/z+qf8Bhcr5sPxQE5xZnY9S2OzwqDGt1FVCM0MJuj65Z91HDINdNPL0j0aLjiCHFALku6Lzf0rahb9rRAzdmuWnewJQXP75eLgUGN7iKqERoYPkYB4Nemn16vjc/+V8PxDmYIOPJ+SQppULbirSiSpt918e6kFfLs3Bmmn+YR6EWNViCiEW5Ti7FTt2z680ew7EoDO+r+MTvY1k1AjCuAnGd+TgfWikPkrdjhXLcfpA+vbnEd9amzHlYqQY1WIKJRPxmYBgDsFwjcdcuo4JZmN+T+4LJtztmMrTh4AoP/zDn2SdNPy3QiHjW6H6OfDAy0p+yna+PhOYVGRhVd5yEYjrdbt+z9rCeOzrypG3FAprtNXV+xzSkcb0pa4en21AhP1TbV3ohqUKP7eaKfjgo0IlcjkK2oTlEciFxt02pjpp8+DwCn1vmfu2o1wVzu2Yw9dBZEShSYfppmuGfRoEZr3KMvg7ztKfv3WTpz4XVRu2TTmI7pp3UAeGWDjyy1mmABwTUR3OZczQcZ6p9U2YtBje5nsC8NTNKaux25GvVodmSoQ5obm7VZYdmYl7poEarrlj3N3oD3kGGbcyX0rfj7GeqfVKZl7GpQo7XpSwOzkvaU/UwcLBUB/6TouWTg2xyfXXpLmn56slPNL+M2J7AErONVqtxWAH2pUV8Fedciac0lSWvuLACcNxwySUUoek4CPMT5efqQHq+NL710z2bc5gTWiqPQFPkK0Jca9b0H04Fa9cjVXsjYrU8JCs9DHZWwzUld7rclzqmSoEZrgwZmFZGrnY0Dso0VPn5H4BSpCjbbVv9UcFy9wGDhWnSVtl5SUKM1QAOzBnHQiOOgcTFytT+IXG0b82qKNDSbifrLAuaXNVi4FlU2MKjR/YRoYLqAejXU0MQBGYwDQl1WHwB+yra57+QwhQ3rn9AHKA7Ivhx3YWS/FSHnIlIqQI3uJ+77IC8PcdD4GAA+joPGl/9mOJ7Oal8MMlf2sS5dWp5DHfUu5naVrtcNh6jedlfxVgRWg4eHKIc8JtToXng1+hgNTEaW30yNkLesoOmn/7eLnIgvP244Xi0OGhu+/Vg/m1HDWaoJy/swbMZtAHg5DsjbirY5H+P8/JHNck+yghrdB69GIRqY4vics94IdcEvbvYh9gCDgrek0m1O3ip1qo0LAzVagYhGGIMpDt61eNfBNfYAn+Gf0rrksc3JEzzM64gHanQv3BqhgSkIzuI99O3BVYgjcrUjbKs9a1BRerBwNaw1K88J91zOLKFGdxHVCA1MQfA+vN0EEVdD35Js10sUVcHCezAc4nEmkuVSewU1uouoRmhgioO3vKJu+ulbvDdhD7DIW1L5WxHunjDetLL9SuKAfKRuRveAGmXUCA1MQbBWELyxhKPMVeW9F+9b8kzkar+n/q24dML4fYE0+F8omtI9oEbZNUIDUyy8LTlBt+wfityoy7dkm34mcrUjIvfgRbfsgwJp8DObbQVLBjXKoBEamAKJXO08r1vcKTQuAnuAR9Z5K8dxQA50tlDzQLdskdjDCwqmsi6oUTaN0MAUz1XOzxumnxLRm1G3nxXaOgAAp1nBrWPLRyEavHMRhhVU4u3QGEWuVkQVQtSoe+7RCBPtCiZphTO6ZfPWB/Zq47Pz7amRvxO9L6sfW0g1P90aNll1Ny6SVviBmhltel/UqEtWa4QeTMEkrfC8yHW6Zb8ufzb5UBsPPZE0+aQVvqdmRpveFzXqktUaoYEpGLYLcJhVlOdh0PTTC6w3TiXQreEtpp+eAIAxgcvPFNHYDFAjHu7TCA1MCYhc7SwAvCpw6ajhkOtVeYBr4+EfslIXvEvzOK9dk/VAjTZlTY3QwJSEOCC+YOFxw3DI35T5AV4uaeEdEtnyhWW3e70+QrmCGq3PehphkLckMDf8dcMhIgfghuhbEgAezTlHZFNYvZwrGbppxkkrLEVBcdRoXdbVCD2YcnExQ1lF+pbkTlNXDTvDkqVVbyMOGmWoi9wBNbqfdTVCA1MilmsBL5VVFH2AR00/vVYbn31S8tS4MRzvm6xF74uCQ9wBgOORq5ViedQBNbqHTTVCA1MyWCJVli/VoG7ZQZZEr6yYfjpqOOQy6/8tugz/oKy9llCjL9lUIzQwJaQ9Zf+FhAQrz/TTX9fGZ/9c5PAdL4bjGYbj7Tf99BIAXMjYaiNqT9kvS5yedFCj7jTSMtygUEw/tVlDqm5pRK5W2BtDBOpKZ1wbr+R05GrHJI11D6afPp/xjb6SNgA8GrlameIu64IabQwamBKjW8PfqI2HocTi0AkANOOAhOww3YciOxqG49Ev1BOGQ4YAwJE5v6QVPt2eGsntMF9WUKONQQNTclhL0lmJb8nV0Ie4yYor0f9eWPlmMv10N3s4h1kbD1XzoF+sPZGrFZKtmwXUaH3QwFQA9gBfV9DmokycYr3BKwlqtDYY5K0A9G3VnrLtvGrR5gx1/0l7yv6zoieSBdRobdDAVISkNfdPkavtKur4viJusGBhI2nN3S56MllBje4HDUzFaE/Zv0/fJgU348/KHQA4056y91Vlt4gH1OguaGAqBn2L0LdJxmzSovlR5GpHktZcEdXplIMa3QUPO1YUlk26AwD2Gw55EQC+VfScumA6DsiPWbX+ngc1QgNTadgBs7MAcN5wiAsAJwTaS+RByJrV96THshH9rhFuU/cQpp8ektzvWAaELheKnkRZ6DeNMAbTQ0SudjYOyG8krfAw28koou5IAgBXk1b4YhyQHWhc7qXfNEIPpscx/fQgK4Go+jBdvNxwi7zaLzEWWfSyRhiD6XFY47DzhuPtBIAndMsepD8s4/QhANgqMOwXrHTkjTggC8sN2Bu8fZwRRi9rhB5Mn8Oaa+1kP/9+jXMsEQDcZP83ilwtLGiqfUuVNUIPps9hB9d6Mb29Z6iyRhjkRRBEGWhgEARRBhoYBEGUgQYGQRBloIFBEEQZaGAQBFEGGhgEQZSBBgZBEGWggUEQRBloYBAEUQYeFehzqnzOpV+YaPJpNFkvj0ZoYPoEWSd1TT+FspzU7TWGxpY12j5gDz48IK7RRPNejeanlzW6PI2nqbsGT1N3Ry/XGukVJpr5ajQ/TV69PJ2PRv1kYJQ1Fi8ThuPpumUf1C17FAB2F9BpsFMtbSZphRfjoNF3dXg3Y2jM07cP2AcfHihWo5uL4cytxfDi5Wl1GlXZwBgA8GuOS8LI1UYUTqlw+q3eaxWZaJZTo8m6Go0qa2Bg+QuVcnw8jlxtm8LpFAb1WvqxYn2VoF7L3rHyazRZl6vRV2UOljeGQ45yBMCoqD9JWnP/onhauWE4nkGXQ4ZD6BvxP5Y4aG8CwHHDIY8AwPWkNfdF0RPKi6Exz6DLob1j1dBo79iyRrcW5WhUdQ/m2hpbdusSB2QPa4ZVeQzH22045BL9z6LnIsDhyNXOFj0J1QyNebv3jlVXo8l6do2qnmjH6849pmgeuaFbw1tNP/UqbFwo75h++q5uDaveNSmE7QPDWyeaqVdh40J5Z6KZvrt9IJtGVfdgJgHA5bik8jtJpp9eAIDRouchiRsAsKfXGuBPNHtPo8m6mEaV9mDigPDu5e9WNBXl6NbwN9iSsFceXGCZqddNPz1BPbOiJ5OV7QPD35ho9qZGE830BPXMeC+utAdjON6g4ZBrnJftqNpuBtuSv15AvkSenIpc7YWiJyHKRLM/NJqs82lUaQ9GIAYDVXu7MOMyq/DBpX/D0wBwBABGAGBb5Gpa54f92wH6cClunXGUnYuqHMy45KrRZF3TOj95asTORXVNpT0YWP4CXgKAOsclcXvK3pG05kq/7qfLotp4GEp8cBMAaMYBCdlD+2EcNLh7I1PPEQCeMBwyBACOzPklrfDp9tTIRUnjKYcui559Tb5G89N3Nbo8za/R0NiyRnvH5Gt0czF8+q9f6k6jXjAw1CO5wHNNHJDDcdAo/TYp7zb8JigLcJt++jx7e8qAfpkerUrgl8VcpGk0WVej0URTvkbdBH6rvkSCyNVmAIArt8VwSKmXSWwr+oKEBzdOWuErcUB2qNw9i1ztjTgg2+Jg6e/azDgcfdNe063hr0uanhLYVrQUjW4uhq/MT5MdqowLZbKuvTE/TbbNT8vTaPvA5hpV3oOBuzVNeIO9u1hLztJh+qkHAFlPfhd2epx5le9mzAE5F7naMxKnJZWJphyNJuvFaDTRlKPRZH1jjSrvwcDd3r2fcF52wXC80iV6GY63GwCOZxhiIWmFTpGlKahXGQdLa3/qXd4RHOYptvQqHUNj2TW6uRg6RRkXWPZoZuans2vEll7r0hMeDIi/9aM4II/GQSNRNC0uDMczDId8luGtMhO52gHJ08qEQDLkal6IXE1W7CAzQ2OesXcsm0aT9XJpNNHMrtFkfW2NesKDgeXArchyh3owwwqmI8r+DA9uHAekdFnKcUAaGbdOPWp4JU4pK5k0mp8un0bz09k1ooZ3rf+h0qepV3Fz628d/i7vdpxu2Y8AwHtJa07UTZQCK7lwBgD+g8Dll+OADItsOauG/V3PJq3wU92yqUv+m5xD6HSY2788O6doil3DSi4IazQ/TYZFtpxVc2txWaNbi+GnDw+Ia/Q//8f9GvXMEgmW3XHqkXwmcGnhSwvTT+nyzhO4NGbLvNI9uKvJsJ1dilo+E01xjeanyaNlNC6rybCdHU/W79eoZ5ZIsBxcjFjQipfR2vhsYQFFVonuhMClM1UxLpT2lP0Tttbn9RYN00/fVTStrmCV6IQ0qopxobz3krhGE837NeopDwaWlxq24RCeWr0dEnayN9eta7Y0+leBSxciV9ulYErKYcbiMO91cUB2xUEj99QCtjQS0miyXk2NmLHg1mh+muy6PH1Xo57yYGBpzR9eZuc2eKHryCu18dnvK5jW+je17IMi1yWt8EX5s8mH9pTdYNmgXOiW/ayaGW3M9gExjW4uVlej914S02j7wL0a9aCBmbvDslZF2jLoumVP53nojlX/56XRnhr5OwXTyYWkNUeXsvt4r9Mt+yk1M9oYVv2fl8Zfv1RdjW4timn08MC9GvWcgVnBOcHrqCczm6OR4a1RE/dCfye2FOUtX2qyQH7ecGtUZBKdLCbrYhpNNO9q1LMGhgUURdfrBgBcq43P/qnkad0Da4rGta2etMI31c0oX5JWKLKUPalgKuvCmqJxaXRzsXc0urmYTaOeNTCscv1IlgQi3bJfMf10VmGil897QdIK/0rNVPInaYXnWbdBHkYNx8uzqBO3RrcWe0ejW4tiGg2NLWvUswYGlt3wOA7IvoxZiku7UobjHdStYWn9bFivaF53/3QvdUpkRzSeYTt4PHxb0ZTugfWK5tZIZafEvLk8nU2jnjYwsPwQtyWk0A8aDjlXGw+56s5swhOcn0+qXrB8LSJXa/LGywyHPK5uRvfArZHKkgtFMVnn12jv2LJGPW9gYNnIXGW1SrImO9VNP/216acXDMfbn2Ug3bJ5g8hZa3iUFnZeiecNmUsAfvsAatSBnVfi1qgvDAwsG5mLcUBkRPaN5TgAmTH99DNW+4QbXgPDylz2JGzZx7OM3alwOl/yMKeBYWUuexK27OPWqG8MDOOs5KLIdH1+gXo0pp/ybmXyBip7Zl2/Djy/X15b1ajRvXBr1FcGJg4aSRyQPYLboxtBvZgrpp9eN/30Um18dtJwvEOG4z2+QVGrhzjv8aGEeZaWOCBc+Ramn9rqZvMlqNEK5qf5NJpopnZZG3ErY3nnonHM9FNd5KzFJlC3cKdu2XXduvv8G87Syixa9QbgaWIViR5onGimdQB4ji3tYgB4mwXtMjM05g3uHSPPr/Ao5uanyWnBg30fc36e/oGFlyTsfNFuptlqT+Vr7N+5NKrKgcYMcGvUdwamQ+RqRwzHe8NwyF8CQB67EmYG157LIGwfGN6yfcD+4d4xcniNLNTRiWZ6dX6anLm1GP4VqwXCxfaB4a8/+1r4CvPcVm7d29Tg7B0jp997yf7xrcW52xzD8n45hfqMM6NIDe5TAPCAyBjr0LMB3hVwa9RXS6TVxEFjIQ7I7yhuViUDLtd7+4D9LP2Sb5Divpv+76sPpnXLs6+FrwPA06uMSwfqKbnPvhZyZUHHQYP37Bh38iMzLtcA4Khk4wK9vjyC5UAvt0Z9bWBg+cGOI1fblbTC4wIZi3nBFTzcO0a6Kkjd7edWwlLnv9vFR492sjk54Pk9uWMwe8fIf+G9hoNeD/B24NKo7w1Mh/bUyBsAsEPgcFcedO1hsdae3W6vDvK2AmWp890srY29Y+Qo59jKvqTsAJ6javwKeMGy4NIIDcwK2NGCA1mChyrg7HLI+2bn/TxPHKlMBdWVJud10+WwH0EDs4o4aLQjVxuJA7ILAN4ROINRNLyxia4/PzTmSTuLVQCVbKxfddDArEMcNBYiV/sDAHiwYjsEvN5X159nB9943tRlikv0yxKmVKCB2QS6PIlcbR/1aJJW6LMHNVevhiepjCVDfd7lxz/nTZ7iKF+QzE+TNzjHVlaGgaXxK1vGTDRzSfwrA1waoYHpEurRtKdGJlih7QdF6oRkoOtlDPMy3uny4++wz3fNZF17tctypDMriz93Cc8ZI66xL0834gxVDruhTM3hVMKlERoYAZhXMxEH5DfigAzFwdJ27xn20KvI5uQKlr73kv0XrLfNem9s+u+n2Oe4ubkY/mgDI3OHGpf3XrJf5hlToIgU99+ZFbIWaWvTDWUKaCtBIO2g3beZvDJgBZN+QX/ioPHlv9Mvi+EspaE/wZLdjIxBRi73+9bi3O3JuvYCALww0UzfYollHU5nrVny1y+N0N/50YlmeoL10Om8vSP6/0/WtfMCw/KekOZObLu1ONeerGsH2Nb8+5JPZffDEolbIzQwClguctWY2ehtafppyjGksHFixkRJESS2XHpV0nBf4/y8cDxlsq4tDI15u9hZJH2tmNpkXQsnmvloVCG4NUIDUxxf8KSrG443WETTsbzIuwDX5elGcnm6sdkOGpdGQ2PeoEDcqTKIFODCGExxfML5ed7yjZWC08DEkauJ9L3iBTVaAWcBrniyrt1AA1McXF8QwyFD6qZSLKxrA8/vx/vFF4VLo71jvavR0JiYRmhgCiIOCK8rrfIcTaEYztIuHE/tlVwMzPw0atSBHYzl1ggNTHHwPrw100+fVzSXwmDtW7h+L97qdxng1mii2XsasfYtXL9XJ4ETDUxBxEHjQ4GdkFMKm8AVguGQtwSS1HKpvXJ5WkwjtpzoGfaOiWuEBqZYRJK+eiahi9Ur5s0fiQWKU2WhrzUaGhPTqFOcCg1MgcQBeZX3XJPhcNdYKS26ZT8ncFmuTeXnp/k1EqiDU1q2D2TTSJM7HYQX00+vbFDacj0ORK6mKuU9F0w/pS73r9Ypu7keceRq2xROa00mmmIaTdarrdFEU0yjyfpdjdCDKZikFYocwHvXcLxvKphOLujW8AMAcInzwaV8oGhKG3JzUUyjobHqarR9QI5GaGAKJmmFFwUuMwyHvKJgOrlQGw//UMAjoEvKQgzMrUUxjfaOVVejZ18T02h+mqCBKROsbapIXOG7pp9OGk61qsyxnt4vCly6kLTCOQVT2hTWNlVIo4lmOlm1SoBDY+Ia3Vq8VyOMwZQE009nBU/kLsQB2cNOdpcaw/F2Gw65InAp/d0e5KxNLJ2JprhG89NkD2/tnSIYGvN27x0T12h1bWL0YMrDEcHrBgHgoOS5KMFwyAnBS68WbVwYPa/R3jFxjdYqfI4GpiRErkbd8GmRaw2HvG766fO6NVzK0/HUczH99ALrBMlN0gpPyZ8VP5N1cY32jpHXJ5rp89sHyqkR9VwmmuIa3VxcW6OvZp4ZIpPrumX/kcB1vwkA9a2/dfhf4qDxCwXzEsZwvP2GQ4IMxZ1mPn91R0PytLJw/eEBcY0Gfufwv1yeLpdGQ2Pe/r1j2TR669DaGqEHUyJYhuphVnZShFdMP31Xt4ZFe2BLQ7eGHzD91DMcIvTGZ5yJA/KMxGllhmWoZtJoopm+u32geI22Dww/MNFMvb1j2TSan15fIwzylhBqJNhDLEobAPZFrlZI8SOWRHdJZJtzBVcjV9sjcVpSoUZChkaT9WI0Ykl0mTWarG+sEXowJaQ9tVScOst5mxoAXDP99EptfPZQXlvZhuOZtfHZSZb9meXBTVgh9dLCCohn1miimV75wWuzh/Layh4a88wfvCZHo/npzTVCD6akMC/guqReQTEAPBO5mpIGcobj7WSnomUUvk4AYE9R3hcPzAuQqtFkXY1GQ2PeTnYqWppG3Xhf6MGUFLYtK2v3hH4RLtClFzvBLGdQxzNMPyUst0VWVf1mFYwL3O1HLVUjuvRiJ5ilMDTmGRPNlLDcFmkadbu0Qw+mxOjW8NbaePjnrO2ILBc6YYWUIla46WO6KtusBALrW7QTAL6mW/Ygq6E7xFnlbDNm2lP2saQ1p6K3lBK2DwxvffY1dRqxwk1LGnVKIKwH61u0pNH2AXuQ1dCVrtF7L9nHbi12pxEamApg+kt9fK5IfIDXI1qjn3RNcv+g9ZiJXO1ADvdRAuu11PMaTdb5NEIDUxFq47P7dcs+rbJ/c0HQt3Wzap7LWvzgtdn9Dw/0rkY8nksHNDAVggV+r9H/LHoukqhMQLdbWOC35zQS3U7HIG+FiFwtbk/ZDmviLproVRauxgGxe8m4AAv8vvdS72g0P03sLLk66MFUFNZhoBRndAQ4E7ma6MHBysA6DFRWo8l6do3Qg6kokau9AQAvZOnRXBAzcUCU9MouG5P16mo0Py1HIzzsWGHioHEVAN6m6+Qt28zBHHYwRKHr+MtJKzz++as7GklrrupLh665PH1XI+Nr5dfo5mJ4/K1DOxq3FuVohEukHkLCGSYV0PX7SEnquRSOhDNMKljSaK16LllBA9NjGI43qFv2s7plP1XgTgZ9UD+IA/JB0grnktZc6Su55cnQmDe4fcB+9uGB4jWanyYf3FoM524tqtEIDUwPY/opfXhPihYREoA+tITFh5AumGgWoxGLDykHDUwfwNL8v2045HFWvnGnhDdnzBqcf8KOHHyYc8fFnoKl+X9775gajdiRgw83O24gGzQwfYzppzY7APcYO2y33mG4BVa/pNOruRm5GhqTHJhoims0WS9eo/8fAAD//7BDnqfZ2hPbAAAAAElFTkSuQmCC;" parent="ZyhSuW8kDFmmL4GDzTfD-1" vertex="1">
                    <mxGeometry x="530" y="60" width="90" height="90" as="geometry"/>
                </mxCell>
                <mxCell id="ZyhSuW8kDFmmL4GDzTfD-11" value="terrafom-repo" style="text;html=1;resizable=0;autosize=1;align=center;verticalAlign=middle;points=[];fillColor=none;strokeColor=none;rounded=0;" parent="ZyhSuW8kDFmmL4GDzTfD-1" vertex="1">
                    <mxGeometry x="310" y="155" width="90" height="20" as="geometry"/>
                </mxCell>
                <mxCell id="ZyhSuW8kDFmmL4GDzTfD-16" value="Create Pull Request" style="text;html=1;resizable=0;autosize=1;align=center;verticalAlign=middle;points=[];fillColor=none;strokeColor=none;rounded=0;" parent="ZyhSuW8kDFmmL4GDzTfD-1" vertex="1">
                    <mxGeometry x="160" y="95" width="120" height="20" as="geometry"/>
                </mxCell>
                <mxCell id="ZyhSuW8kDFmmL4GDzTfD-17" style="edgeStyle=none;rounded=0;orthogonalLoop=1;jettySize=auto;html=1;exitX=1;exitY=0.5;exitDx=0;exitDy=0;entryX=0;entryY=0.5;entryDx=0;entryDy=0;endArrow=none;endFill=0;" parent="ZyhSuW8kDFmmL4GDzTfD-1" source="ZyhSuW8kDFmmL4GDzTfD-31" target="ZyhSuW8kDFmmL4GDzTfD-16" edge="1">
                    <mxGeometry relative="1" as="geometry">
                        <mxPoint x="280" y="105" as="targetPoint"/>
                        <mxPoint x="151.42999999999984" y="105" as="sourcePoint"/>
                    </mxGeometry>
                </mxCell>
                <mxCell id="ZyhSuW8kDFmmL4GDzTfD-18" value="action" style="text;html=1;resizable=0;autosize=1;align=center;verticalAlign=middle;points=[];fillColor=none;strokeColor=none;rounded=0;" parent="ZyhSuW8kDFmmL4GDzTfD-1" vertex="1">
                    <mxGeometry x="440" y="95" width="50" height="20" as="geometry"/>
                </mxCell>
                <mxCell id="ZyhSuW8kDFmmL4GDzTfD-19" style="edgeStyle=none;rounded=0;orthogonalLoop=1;jettySize=auto;html=1;exitX=1;exitY=0.5;exitDx=0;exitDy=0;entryX=0;entryY=0.5;entryDx=0;entryDy=0;endArrow=none;endFill=0;" parent="ZyhSuW8kDFmmL4GDzTfD-1" source="ZyhSuW8kDFmmL4GDzTfD-7" target="ZyhSuW8kDFmmL4GDzTfD-18" edge="1">
                    <mxGeometry relative="1" as="geometry">
                        <mxPoint x="370" y="105" as="sourcePoint"/>
                        <mxPoint x="520" y="105" as="targetPoint"/>
                    </mxGeometry>
                </mxCell>
                <mxCell id="ZyhSuW8kDFmmL4GDzTfD-31" value="" style="shape=image;verticalLabelPosition=bottom;labelBackgroundColor=none;verticalAlign=top;aspect=fixed;imageAspect=0;image=data:image/png,iVBORw0KGgoAAAANSUhEUgAAAJQAAACeCAYAAADUpyOyAAAahElEQVR42u2dCZRV1ZWGT1VBMSoiCiiIiIKCUURFFFQwOBM7xilqG00cYifB2WBU4hA7QRvNYNIah4iNUZFWQI3zgDMKOCTaEUEFicgoMghUUQN9/nrf8V2Kd9/86tWre85ae7ksqt6979z/7v3v/+yzjzF++OGHH3744YcffvhR+FFmrbW19tY6WdvOWndrO1rrETD9f1drna11tNbGWrmfPj8cgLay1s3artb2s3aEtVOsnW/tcmtXW/ultWuwK62NtvYDa8dZG2Ztd4C2NZ9Z5qe35YAk1cNshQfqBYCOt3aJtd9Ze9Da09besPaBtfnWPrf2hbXF2L+szbE2y9p0a1Ot3W7tCmsnWRtsbSdrHbznKp2hB9XW2raEod7W+lkbYK2/tb7W+vBv+p12hDJ5ooHWTrZ2vbX7rb1sbZ611dbqrG3K0OqtrQN8r1l7wNpYa8fi9eS1Kvwja57epy2g2MPaYdbOJiTdbO1Oa/dZm2jtbmt/IFSdRRg7ytrP+L3X8DobswBQKtNnLrT2rLWb8Fp9AbQPhc3EGyl87GxthLULrN1m7Qlr7/LwvrJWjbeo56GuITy9zcN9ztr/8fP6AgCpsdVaW2btFWvjrI2EzHtvVWSPJCAdDSGeZu3DJgRFvoC1yNoj1s6DwLfzj7dph97iLmRQV0GUP8MLbSpRW4e3vNHaULyuH00w5JV2s3YmpPmTAnGdYnmrz+F4hyFZ+FHAENeRtPtaa2+ReW1qYaZQvZyX5WgkDD8KAKZtrB0O4f6Ut3lTC7aV8KrvkAH6kUcwbYvA+JC1JSVEuHM1eeDJ1g42MYXdjzwMeaYTrD1ubVVEgBS05Xjl/sYr6zkPqcj/Zu0xpIBNETSp8/ORRXb0kMh+tIeUTm2h5DsTq0GkPdvzqeyG+MIQE1smWRVxMAV1KnnqA4xfoslolKMz3QQB92CKywnSqK4zsVorP9Ic21u70MRKQOo9kDYzrQS8AhXwa35pDFU3qijt5RakfhdC9LzV2g4eLqn1JpWd3BHhjC5dgq7ivRM9l0otEaisdq4PdSm91AoTqyD1yzJJiLgqB1R+UuVBkxaXUv3WUA+dxEOlKCruX+y9U9pip9YzL/dLMom5k9aqnvREPCP72sTq03fxENqSO2lXySLvnTIm57Mh534Exv7W/tdzp6zI+RcIna08jOK60zkmVnVZ50GSVdi718Q2N/hhYhsMfm9trQdH1tneM9YO9FCKjRGkv56MZ8+j/m5i9fWRH5XWzrW2wIe7nHiUpJZfeR5lTE9r442vdcoHj5pgYovqkR4HemU8L7bBxOqk9o46oLTp4B14gAdGbsRcXV6+HWUwqZbnx0UWM4M9DtaXMKA2InCeHGVAqeJQRffFLO9VqP2QcPF2CXtK7U9UMeJPogwota/5M4SyWN5pERrYKLKkBSW69FPHdxkbZUCp0P4RCGWxiOxL1r5nYv0DBgPwZSXqpdSu6LcmwmXBEjSfLVKG5/a5qUOd2h6q2qEDpFb9BFaWqHRwl4lwwZ2K7F8rkkIu3WsqoHY7cQUqVT2oi536aH5ZYuFPW6y05ay7lwyaPiPShsnzQ97mjniqe1Gga0sIUPKuO0UVUKda+6iJH5hCnVogqt9mvyT31g5OdQvZUy5huZ7r1jcBoORZI1tsd2YTr+HVI1FMaRTqkulkvU2siesLJrZ1KRvw65pqPz2Xh14oYElHm0z2HMlxhonVRDcVoORlZphYM/pMWg0qBB6KV5sFt6rJABhqAvtzQuwT/H1dgQClrLl/VAF1GiGvKQBVQ+jSJogeWdyrCHsX9Ko/mljT+0VID6nCmTzTBVxXdfP/Y2JVlrUFAJQSjW9FFVAnEwoKzaFq4U3qSb5njvfsuugNN7H+5lNJLBYRzmoCAHMgk0fSxlV19lW5jprq30q4z2dC4haI94kqoL5HtlXILK8OoVLZzzCT32ZdrcmoRgGuv8K13gMsK3nI1SzrnIWXqwBcagTycR5lEweoQVEFlPpGvlVAHaqehzoNbamygN/FaVjfQg651MR29T4Ab1LLa9V97ct96Pf7IKzOydMcOA41IKqAktbzfIGU8jqWIp7CExajiXwZ15UX248wuXeje1E9/ViIe6791Z1s0DuqgNLbOsnkv2ykDs+kTaMnmubfPF5Vqzql6v0cQbXORHz3i1z+n0x+d7u4s1OmEXpK5SQC9c28zMQ2G2TrsbWWp0OPItsoX22irzX5q4fS262jOXTa1JEmdtpCKQ31erqYRCUbUK1B0ojsRgVlSaNN7uUidbyd7yM+Di7hSe3OnLydIahcAjLeRHgohT/PZF8CXI9XUg9O7etTC8VdIMPlgKp1CmuVJymhLIPrVZjkTcLEgVR5OTsDUGkulppYkWBkh9LsMXio+gw9UjWC4WxEwiPhDq353J1I4fclw0pkg0ixewb+NtNucAJHe0DQD1Ex7Hr7kuUJ9Cp/bpPketoOpf2KM9JMWlzF5jUmwh3t9ADuMOmVANeh1azDI0m/UjHZGQCiAiAN5Gd6U+9GB5oUYvdzfYmSOpB6T4BVnqZHCp7TdynAnkjqnuh6upcJCJoCy0HwyIokHFPrjq+a1IvKru/mjQXW25r1GIqy69bDNkAs1wKytfy/9CR36uaj8CQBoBcPv5w3ehQg+xTw1eDJqhJYNVaDB/iniS3N6JjYLineclfdOYh0/xUSi5rA54Zd092X6qzUbebfTWyNLwxU2/BdX2A+6k3qphndogooPbyXmGhNxhu84ZOY7If4///GlZ9B2Ni60cPtjHj5NG/yBrzYB3iyGQnsTROrHJBKvSIQQh8GmFsnue823IeAPZ+/Feg/BvRvJrmmZIHPuU+BbKaJdZ7ZLgmI5TV1NMkTXCdsMX0DL9zAqALqGEC0kUm+ghDSF26zO1yoY5IwVEnomMyErgUo8jYqF/m+iR0QnchOJ02/B6V6A2FDoXJ/OFUlHKk9QGqFEq0TROcBik8B/xg8Ttj1TgE843iRvuLvXzSxpaE2SeZK1x9p4idxJVr/dJ81MqqAOpY3150QfpHJbImkjFA3hhBShUf6iUn/gJ1KwCsP+CH38j4Z4wAkiKMAv4CrWiOp788DwIWAd3AGuldnwPUcnsp18+2WItQKcNopdDvesCqBDjcDQTeS4ygIZzUe6tIMASXesZeJrfLXAarfmMybwbeGD90FF1LoewqSLeKuLd4vEw5vhXT/izAtDnhYCu8SRrhVCbrAxNT9F/GKqfQz/fsevABvBribq5WfQfiP5Bhh4tuolhNGMgFUJaCcbuInNZ2eg6Co8Odq3NdzX0GiXct/Xd3T52RVfbLUrQ6B0Osz/0F4bpvm33YjvD6Elwwe2XFMVAHlNnqu5yGNgy+lO+QVTggIgC/lMJnyGGfxWS4NX4cH0c/eAUBVgUzrY8JttsdjDAp8/3mE6kyOLdPvHgx/dBxKneyGRRVQ/SHAXxOy7kAgTFeYawvZfacRuc1mdEbzmcXDWUv4+DXZ5Q/hOcHFW4HgcpP9PriBeJh1EPuLTGaL2WVwxf808XqohwmJkRzd4Tyu2djDiIvlRQZULbrUGETTsgB30f1+VgBAzSfkZgqobvAptzh8FzpaJIcAcYGJn5zwOiGrVZEBJY/5N8h2WaMQ812kjuYCKHf6RLAtYqSPPAvuHhZfGZ0BMU8EqKNzANSZJr5NSjtT9mv0O+VwlucCHOryHDjUPvCf9SlCXlmI1y5Htxtv4o1bf2AiPgaRhq/H/gQvKGuU1m+D5rRV4A1sQ4o8iwzndTxINkNK9Xk8FOlCfzFb7h7RPamF49N4BHmVXxIWsxnSrh5Hz/oYGaF9oxdmB0DTNSQp+TZZ7noT8Q0KbjiXvYSHpMk5vFHY60mKPIaQ2DkgGxyBZ3INt35qMq8f15uuCoDrSMGXIR4m2t8mrWgqms9yEom9TeYlMLp3HTLpmpx9gOQRlA0GcE//hSduDG6F2l/wAixBwtg66oDSg9A61UwmVhNzfaM3cjDp9WI8mNN9nLA5kb/VUsa9/H67NLPFCkB9HN5iPaH3ejxDosz0dsKiU6bPghynw13K8Cz9AYDb3j6ddL91IzogsEi8vDkBnzuKl6kaXne88aNhiKu4c14kH0iVHsWklTHRzwCa+wKAKiNUiccs4t91vIeWQkYCiG5JTOGkH2//RADrHs7pIXymG4nEBya+GeJRuMsefGaya2ptUks4Kn1+H08n0NyaINSfAJiUJPyRf3M7afbHO67mJbzF+ONivxlu+cR1slsFcA4hvB1p4ucPTzCbt6upBHCTSJudgv0kutF1pNWJ7Aa8zUt4CpcY3GLC97bJuwwFgCsA1SpAeCeaUNj1XPh6BOBvxCNqXfA7ZkuV/LuE3yo8bydAMxyALeIzXoUm+KNiA+nzA2bzxc4l/OxHJtZo4u9M3t1m84VftzX8REDkGlnU8bBW8uAT2VcBr1gFmO5BLkimWEtV/z7SwjITb5xRDbjCrvdlQMSt5XeVSJxvEpevjAI0tYBeAquWp6YxP65kZSJz4Ecg05tktlw9XwOQXCq/EeFuhwQ8bDve6AmEo2U8MFewl8hc8Z4aV7wFTzksDWLrBMWTuJ5C19I0r7cacM0lzIt/9Qgh9UeTSbpqzLfxvsHSlQ1kpG08jBJzqFSd5+4K4Qp6yB0B57mEFr25DxNiEtlkPJJC36lwoHRLUNzWc9372SZW1juR7xF2Pd2Lqhd+j942DM8SFqqOQk5IVqW5Ac1sKw+jzVPxh9MAVA1vY48UD7oDhHwQutHQBCZiPISUv4fJfg9fGeGxF7pV2PXcNQXAXQFjeRrZ78IUgKoCpNt5GMWHqg6mpAkoeYA9IzAnIuAXmtSHKmnOHjLpFxRGYgyBaKba1y8yq2WWU0zLXq8q46W5z6RudVRFOO3jYRQfCgWPmfQaRXyFHNCS38h2cLq5JvV+xWrmboCHUXwMJQVPB1C1ZGQnttDMphxw3GnSO2FCc6Zy5X09jOLjYDSkdADlOvneA6EuVA8DhZ3WEO6tINEdAHFFAa+pJaefpZHdBTPfF3gp/WCow+4zJv3eSOJSKve4noypVZ48QxvSeMkSu8HtpGCruayWYlTZMMLElP3ePHwBrdLkrlLr+hJM1Xf0JZN+Rzv9nurIR3oYxYceUqaHWLsV+isD+lFZFh5I3kciZT/uQ/vmVJWppSBtoNDOEm1+UN9MCawvw1kUksYCtIMgxV1N5j0SygBkT3iTSmO+znAedI/HeRjFh2p6XjSZ95mUR5sDSR+JntQxxGM5D7Q1D17lKqpK0BLKtQBIYFHp7xL4S30SHifVW1uppORrLU6K+dV83hA85w54nY4A3nVfaQ3x3gYgDeNv3zCZH/Xmdvuc6mEUH4eb+OJvNh3rFvNQb0RSEFD64jX6EL7Et7SscgYP7248kDyP2xqe7QkHCsFrESHf416U8msXz2ju6XA82WD4zjF4w/F4pfk5fH+9BOd6GMWHlhhyPZXK9YmSx5hOWJLgpzXCqYRU1S69z4NfYwrXH73OxLvEzOOeFJZe5cV5lfCpncpLc/zejk9e4mEUH8cy4fnqV17PZ23ANprSPKUz3e+qxe1rPIziQ4RytvEno2cLKIm9NxtfD/XNOB7uUcxz6QRmlcgswMTLVhNKXf1SFRrYYjjPJ4S1qiKDSkT+zybCjcYaj5NM05z5kuowa5XGaCuVapSuQjxV9vkOHvRZfucKsirpUqrQ/KjIIVWFhCqd8RUHDLduVVekB7IRDncaOpLTpnYlO1R5zX4Imk5v6oAUcAgJwPoiAko88RGyWT9MrMB/QRHfcoWxyVkuX+xG6v9FEQFVjfRwgIdSbJzNAykWoBZDancLqNcSQbVBQlUNO7PUIqGyk9l8q5O2YP0YLWhTET2sZJejPZRiD09F+iuK+ECk41wGOFz1pURQFbi5BmMPoshLQDwQVd61SdSDfL2IIbuGpOYMD6fYUsSFpL7FAtQ8hMHdkTD+gPC4iPv6GlMW+Bng+R2/2wcV/GmT+2lSuYibn3hxMzb0lo8xqUtdC2lSq6eR1b0DiGpSeISVeIU74VCziwgoUQXt8vmN16JiPOValkKKBSjJFW6bU02Gf7cGz7WhyNLBWsDdIeqAEtG9yeT3iLMo2noy1V2iDih3Zt7XHhQ5WRXCa+QrN7W7Y0KRhcGWYBtJJE6KOqBcq54NHhQ580DVoV8UdUBJ73kuQYbkFmQ9WLYEzoYESUA9ycF4E+ETPQ1aziw4wFpUa+lCakD2D0/WtwCTdDD1o3qM+dGS1XIAJh6qPgfdowwola5oG9AbcCk18zoUJXqEiW1RX+fB1OCxVcN+A5mx6tH7Mn/XoqPNRksbGGVAaVKGs14W3PfmeoOPRIWOMsdyLaPH432ceOmOwVXVQyeUfu1x7B1lQLkDFMMUXi3EqqD/xYiCyqngWg7qmUIJL+dlLDd+JB1RBZUDk9of9vLLKoUB1QsR0ayCYNrZgynz4TrcVpjwY+gFKjVwfaaFE3UR8CWEuUSeyTU5czuVW3nAxSfGHVPfDYKuzZAque2cBFTaafx4C5UUJA18DgHvGQIm7UY+gd/R6Q/DmDvNYbsUnLTFAajcxI/akCtXrbZ21qonpjZBqtBOmzFVBRl2OrneSNVyq5vdKtNy9typ0kG7aX6NNBAGJlW4zgmExpXM3U0svQwi09uGuW4xACsLZB7tSXn3QB2X3nQ/ywWJ6oi0Cyas3bIDlSonXb/wUgeV5kC7Z8aaxGcGupOnBKZ/JuFdEohVbPcAcyxJph+f2bYUwRX0Qp14UxTC1KZmHJnacpNeuaxOKtcpl9snAZXextvhHHWmNMm3MldtV78ED1SWQA7Qi3VuwDOlGz41L08CVO3Q3pMXu1mDq3EoU0mKyijUDOIvJn6EfTYTrgm8EH5QHgKqAfCJhaa0dh/Xs1zyBmDZOgRMXfHWH+VI9F1ovB5wDeBlbdNcwOVIdUeykYOYGMn/H5r87ajV2t7PTXiD+ApArKPG5hI+6ksATCp7fg4O2SHke4lLjYYa5JP4y3OpleIYkpw+Jn50XJMDSw+1EjesI8DU71LN3N8rkEbkzqa7hhAa1v9JgFP5xrvcR73J38p+bR5BWkvYV2/2o0ziHun6jjrT5jITP02hUHVUemG1I1obXffiuVY2BbBc067ueCOFoseaiL/Um/ix9v1M4n387nSqH5pYy5w1OT4IbVaYSZiQ53O14xtN/HyXbDI5fY+7SSoqQ6QR7Vq+mt9tCm9bB8ifhMwfQKhtXQhguY2PO5Cu/4JJXl2EMKEdKioZHmgSt0F0R2Ycj1a1Igewf0IYPRSQ3mbtCRPrgfkunKQ+g3uvApjj4S+tEtx7W/5tnIkfStnUc7yKFYmLSai65Es8dSv+24LYK3jz1xaZe+hB3gvx7xjyRSXwjTCx+qBFGZD1ekKSvJB2M+tMusEm3s7Q6WcnMOk1aX6m5mw2nKWX2bKTsDtSZH+WW1YWmQe6eX4K8XQP7q88FzDpoWh7tnoPTMElNgeyW084ewQO0jnkiyqcqH/3LZDaqjTuvwrOouYZbxEC/gPVOggCNdH4axovl8uunkdD2i6JVx3OC7DGNJ+kwomtt7Ps1dVk0VbbfcED4SwfNtN0XMT7WbKksCNaW/FSyLu+TZqe7GF9wRqadgMfgWJ/DiE2yHd2x5MsS/Ew9HlqzTgKb5qIl7ojaqc044XvddCc8/DQrTMBk974o3lblpSAwvwmOk2vJBmg+N+P8BRfJuFV8+AO26aYJ13rOhMryQ0TK+cBuiEhmVwFCc4ZJn52cHOfa5UdX8kLVZkumHSQ4TTIWamsgWmp5ipifZuQsNIJT/GA2fIgw+DhRKea1IX+EgR/mmAZpI6QNYssrV8I+dbD2AWNabbJrXFrUy9eK1m5gblunSrMjYKblAqYgl90gbXfQqKTkfUh/N4cs/nuEYWbpwl3qUZHlpNmJ9CXnsIbdktSeiK951rU71LrLVrDfV9J+EvIqdqgLU0wxW2tk6uWspQF4yMIW+UhOo/KPS5n2WMVf7uCpaJBaQCqFYvcLwKkagAtmnCMSXzCZjle8mATP4S6rkTnuhpOek4ielCO+x2LOyv1SsfV6EWnoZ6H8aquhLcpkGd3fsxOafLNfSHcS1klGMfP2oTwJV1Pp3ROQjQt9QqJNczdiMZ8Sm+TGpBOL6FYnk7fyTdZiukbwqtc6HLH1os3nmWSn4geHPrcXwGq0SwLVYTwpd7IBi+YllNtWs+C/DXIKt98YTH2m01x+0QWap1qDtLHYF6cML1qd/jj3hnIK11YORgWUnbixMq9SBjeK4FMLhvpRgvcI10kaEfMf960zMbztXCVe/me24eQyLIsSjiS/U05GbPCwa3wq5a6tX4+kaChrfWOlIbMbaFfNrg+9RRrcr0LtegZIP09EFwnm5ZRUZpqEX0Cnvib40i/asFfOMirZqMP7UM4yieo3HJVf97YV000ttErjH9zCORwtJeodDqpIZu7Db2pi8nPka8uxB1CNcGcFpTgpGMfsebbkDbPjNAXdyFQYehRJqF3DgVl7mTQnoS4B5ER6iI2pwspa2ookvswYl8+uOD5ForvICSE8gzB1IGq1Utw+1FtP7SUqo4GHWVhRCfBSQufUPd0LIu16TTsqiBcjqQ6YW7EQlwiYq5VgobJWB7hiQh2f3uGBd/+kOuyJNWrWlk4s5nViRX7iDXNRUNt85qIT0awuO59RN7DEhD2chbQB6MOzzS+GVowg9YL2VDKUeUnZItGFVPQrPpQy1SJZqclqntauFCZLXVQAV5DqYqfmMSEfRaLxcMpebmYtbhVfn4Srkho7bRhG1S9n5BQzWohdeVT0Fqq/byEena9gA1lHn5CUk9WnX/xUs6R6qMa1rf8hHjLR6asvYoNyy5+QrzlA1DveEB5y3vI84Dyli9AzfYcyls+ZYOZHlDe8gmoGR5Q3vKp2b1mEO38hHjLx9LLK17Y9JbPMuDpHlDe8lmpoXVO8zc/Gd7yBKjnPKC85b0eSqcZLPPmLUdTVYZ6NjTsTzvcm7ccTRWu+/w/AIQDg+vD0iwAAAAASUVORK5CYII=;fontColor=none;noLabel=1;" parent="ZyhSuW8kDFmmL4GDzTfD-1" vertex="1">
                    <mxGeometry x="30.95" y="53" width="97.42" height="104" as="geometry"/>
                </mxCell>
                <mxCell id="ZyhSuW8kDFmmL4GDzTfD-32" value="Developer" style="text;html=1;resizable=0;autosize=1;align=center;verticalAlign=middle;points=[];fillColor=none;strokeColor=none;rounded=0;" parent="ZyhSuW8kDFmmL4GDzTfD-1" vertex="1">
                    <mxGeometry x="45.94999999999999" y="157" width="70" height="20" as="geometry"/>
                </mxCell>
                <mxCell id="rgny3POMjfnxjg8cLhlA-4" value="terraform fmt&lt;br&gt;terraform&amp;nbsp;init&lt;br&gt;terraform&lt;span&gt;&amp;nbsp;valiable&lt;/span&gt;" style="text;html=1;strokeColor=none;fillColor=none;align=left;verticalAlign=middle;whiteSpace=wrap;rounded=0;" vertex="1" parent="ZyhSuW8kDFmmL4GDzTfD-1">
                    <mxGeometry x="540" y="153" width="140" height="50" as="geometry"/>
                </mxCell>
                <mxCell id="rgny3POMjfnxjg8cLhlA-5" value="Cloud Platform" style="ellipse;shape=cloud;whiteSpace=wrap;html=1;align=center;sketch=1;" vertex="1" parent="ZyhSuW8kDFmmL4GDzTfD-1">
                    <mxGeometry x="800" y="46" width="178.33" height="107" as="geometry"/>
                </mxCell>
                <mxCell id="rgny3POMjfnxjg8cLhlA-40" style="edgeStyle=none;rounded=0;orthogonalLoop=1;jettySize=auto;html=1;exitX=1;exitY=0.5;exitDx=0;exitDy=0;entryX=0;entryY=0.5;entryDx=0;entryDy=0;" edge="1" source="rgny3POMjfnxjg8cLhlA-47" target="rgny3POMjfnxjg8cLhlA-42" parent="ZyhSuW8kDFmmL4GDzTfD-1">
                    <mxGeometry relative="1" as="geometry">
                        <mxPoint x="525" y="365.7750206607193" as="targetPoint"/>
                        <mxPoint x="330" y="279" as="sourcePoint"/>
                    </mxGeometry>
                </mxCell>
                <mxCell id="rgny3POMjfnxjg8cLhlA-41" style="edgeStyle=none;rounded=0;orthogonalLoop=1;jettySize=auto;html=1;exitX=1;exitY=0.5;exitDx=0;exitDy=0;entryX=0;entryY=0.5;entryDx=0;entryDy=0;" edge="1" source="rgny3POMjfnxjg8cLhlA-49" target="rgny3POMjfnxjg8cLhlA-45" parent="ZyhSuW8kDFmmL4GDzTfD-1">
                    <mxGeometry relative="1" as="geometry">
                        <mxPoint x="330" y="469" as="sourcePoint"/>
                        <mxPoint x="525" y="400.875" as="targetPoint"/>
                    </mxGeometry>
                </mxCell>
                <mxCell id="rgny3POMjfnxjg8cLhlA-42" value="" style="shape=image;verticalLabelPosition=bottom;labelBackgroundColor=#ffffff;verticalAlign=top;aspect=fixed;imageAspect=0;image=data:image/png,iVBORw0KGgoAAAANSUhEUgAAAHgAAAB4CAYAAAA5ZDbSAAAAGXRFWHRTb2Z0d2FyZQBBZG9iZSBJbWFnZVJlYWR5ccllPAAAAyRpVFh0WE1MOmNvbS5hZG9iZS54bXAAAAAAADw/eHBhY2tldCBiZWdpbj0i77u/IiBpZD0iVzVNME1wQ2VoaUh6cmVTek5UY3prYzlkIj8+IDx4OnhtcG1ldGEgeG1sbnM6eD0iYWRvYmU6bnM6bWV0YS8iIHg6eG1wdGs9IkFkb2JlIFhNUCBDb3JlIDUuMy1jMDExIDY2LjE0NTY2MSwgMjAxMi8wMi8wNi0xNDo1NjoyNyAgICAgICAgIj4gPHJkZjpSREYgeG1sbnM6cmRmPSJodHRwOi8vd3d3LnczLm9yZy8xOTk5LzAyLzIyLXJkZi1zeW50YXgtbnMjIj4gPHJkZjpEZXNjcmlwdGlvbiByZGY6YWJvdXQ9IiIgeG1sbnM6eG1wPSJodHRwOi8vbnMuYWRvYmUuY29tL3hhcC8xLjAvIiB4bWxuczp4bXBNTT0iaHR0cDovL25zLmFkb2JlLmNvbS94YXAvMS4wL21tLyIgeG1sbnM6c3RSZWY9Imh0dHA6Ly9ucy5hZG9iZS5jb20veGFwLzEuMC9zVHlwZS9SZXNvdXJjZVJlZiMiIHhtcDpDcmVhdG9yVG9vbD0iQWRvYmUgUGhvdG9zaG9wIENTNiAoTWFjaW50b3NoKSIgeG1wTU06SW5zdGFuY2VJRD0ieG1wLmlpZDpFNTE3OEEzMjk5QTAxMUUyOUExNUJDMTA0NkE4OTA0RCIgeG1wTU06RG9jdW1lbnRJRD0ieG1wLmRpZDoyQTQxNEFCQzk5QTExMUUyOUExNUJDMTA0NkE4OTA0RCI+IDx4bXBNTTpEZXJpdmVkRnJvbSBzdFJlZjppbnN0YW5jZUlEPSJ4bXAuaWlkOkU1MTc4QTMwOTlBMDExRTI5QTE1QkMxMDQ2QTg5MDREIiBzdFJlZjpkb2N1bWVudElEPSJ4bXAuZGlkOkU1MTc4QTMxOTlBMDExRTI5QTE1QkMxMDQ2QTg5MDREIi8+IDwvcmRmOkRlc2NyaXB0aW9uPiA8L3JkZjpSREY+IDwveDp4bXBtZXRhPiA8P3hwYWNrZXQgZW5kPSJyIj8+R7ClIwAADR5JREFUeNrsnQuwVWUVx79zeWUXNWB4RIhXCCNUVLiCQJoBlqCIYaIBUpRGltMICE6JxojSjIKlhTmkgmjkoClqcBkTHeSNIAooQkTIw3gooAKCXL39/+x1bvtezjl373P22nufc741s2ZzmXu/x/rt/T3Xt75EVVWVsVK4kiiESrRs3qI1Hp2hX4e2g5ZBW0GbiTaGNqr1Z0ehB6Efiu6CboVugW6Grt29d8/7FnD4ML+MRw9oL9FyaFOl7PZBV0GXiC4D9MMWcPBQ2+IxCNoP+u0UX2NYwq9+IbQC+hxgv2cBZw+1BR5DoddCu8e0mCugs6FPAvYeC9gb2D54jIReBW2QJy3hMejz0IcBeoEFfCLU+nhcBx0rg6V8lrXQ+6BPAXZlUQMWsMOg46HtC2yG8m/o3dJ8VxYdYMC9HI/J0I4FPhXdCB0DyHOLAjDAnonHA9DLimzNYT70FoDeWJCAAbaB9LF3RjjNiVo4zbqLfTRAHysYwIDbCY9Z0HONFcpb0CGA/E5eAwZYpv8L6Wu/ZLnWkCPSok0F6Kq8Awy4XP99DHqNZZlRnoGOAOSDeQMYcDvgMQfayfLzJBugAwH5X7EHDLjfMs6qTlPLzZfsE8iLg0y0JGC4g/FYYOFmJbTZArFhYFIvQLgj8JgJrW9Z5cTj6salpTsOHT60JjaAAfcmPKaZAnEgiFhow4GAvAeQV0UOWL7caZZL4HI5IG/P9UuulyPcwdIs2y9XRwYA8ruA/Hboo2gZLXNA1dByUJXPoH2yHV0nsoTLee5yO1oOdQp1YTbz5EQWcLlCtRL6TWv3UIWLId38rniV+ITLF2K6hRuJ0ObThYHOIAsd/s143JpjQQ9AOWigLzK3DQt9E4L1ZdO6A1qaY3259PsBBl0rA2+iZcvvDZP7Xu4Vbu8GpNuGgwjjOAAMhJ6U50A/Nc5SLTf4F6CuO1x1HYDHCzmmzz3lrkj37cAAy2b96yb3/VwOFlql2+xGPqcYx0eLXpX55ny3DvqwcXywPs5gx93QJjnmxf3kC7w4DXjtg8eZYDbrKzIVioaBPgRlXnRyX5EHYNlc9kOZO0vZP85QP9a9IoA8aZ/bAhlk4a37Bh53BGSM17z+IozBJo5HVK42znmhuAnL9AOZvsz38XeLAsp/vLDJKF42Bh40wflQ+VpbFU+HZ1GRuTK4uyNDWd6Twdu70J3Q90U5mDskfeNR+d1G0tdz0MPDaa1Fv2YcL8+zoKdn6AMnQe9F+Y5kYYPXA7JlI2Hzvaz7YHFt/UdABWLzVJqLs5kssDwKPRu6VFoEfhHrgvaIkPn+OVCu2F1snINufIFuyMUzUvphvnBBndq4IpNLbiJDQepLhc4MqCDbUJDTAzA8y5xAWl+E2R4j3xJpVb4IIK3teLQJqGicgnVK51yfqYkeFiBcyq4gEpFmO/RT6wG/UP8NEHAHYTXD8yBLmpHxCvNDK44EfcaYA66GfkbRPAjW3nLIGyGra/0AvlWhENYv+v+isVo31hNgfOp9jc4q0umWa7W0VUjzHGFX5xf8c62BKApwcrGTFRu0VEr+poyAJWzClUqZc3rTxX68x22g5eI0QBim/YKHGd2wCX0tX1UbNBCGaQEPVq7cAMtX3QaDUwLGp80AYtrRbO62fNVt0B0s26f6gq9Sznji7r17nil2umKDu5SzGZgKcD/FDJeHUKl8koliEy3p7x7ZJsMD0ttCI7TC55yj4c3dYLnWmLFwW5JeIBpnubil2ZRhF5NfcC+jFzdjqoWbsqnmvvVUpeQbCdPqJrqnUkbcEL/H4kwrk8RGGtLTDbiXUiZPxDWGY0y+YtrmCaXka3zBXZUyecRijMxGx5km0NnTD2mHQgZb8IbaLUdvAy6GPWynkHQbfsFa/sfzLDrPUqGUbmcC7qCU+GLLLXJbdSDgMqXEV1pukduqTAswXWO3WW6ehbaq1ALcSiHh7RhgfW65eZ4uEe5OhaRbEXAzhYQ/sdh8ywGFNJtpAf7I8vItB7UAa/hJ1bO8fIvGpsPJBKwRJaex5eVbNNyKG5YoFbbU8vItp2gkqgXYxs6Kic20ALfyGw2mmEVOLrbQAlyp9Da2tug8C22l4a5cWaI4pTnDcvMs7ZTS/ahEaYKtWehCFK2P4QAB71VKvNxy8ywXKKW7l4B3KiXe03KL3FY7NQGfJ+64VjKPoLlm0FkT8GalxLlc2dsirFN6G72l3c0EvEmx8IMsvzrl+4ppb0pIMNDtShlw25CxKQ9bjimbZ3ZhjD6kdTD+tBKJhvqhUgYs+FCLMq0MVYS7j2yTS5WrFSsxOhlEzEqNr5fbg6MVszgeNjJp+KWKGfGQ1Y8s0hPkeqN7+/kyN+AlypWZJLGgrZjquNiTlLNZ7AbMH44qZkbHvvst2mr5g9FxdkzK0RqAJSzuIuVK/RRv7hD79bZgkJQRytksSoY6dg9+Xgyhfo+ggj2KGC5P/IVxDWB1CGg34OdDyJgh/Oajot2LEC7rPM+Ec+nInBMA45NmxPQwjptwgPESKvzdIoLL+Cf/NEp+V7VkpbA84Qum/DWkOrOiFaj4BGi9AgZbD8qwSXMVFzRqyyz3D7UB/80454rCEOb9W+hCGOHcAoTbRaaft5vwbmc9JgxTA8anvdfdfockHHishkH+BG1bAGDPgP7FOCtJYY815tQOmZFIUcBL8HjV54oJR21MmNECuHnNLbD6Wb6B7Cb+jIKuzCOotONFxonUy1CCUXU7vWG3VzMClgLzCrvzPSTI20NOrX2SEH/fHI9R0DEme39fhl56Sl6eNXJXQ6z6V+Pc68SgY4yQH7WT4Vuw0Xm1/zORYTLuNfrLb5Dw72r9/SJZSZkpX+T5ORae18G9Jq0F7x1ajzwPhAyU26q8zqdcWinC/UqM3rnrYZMnvQJm88pAXV6DqDwAvQ0ZHHXN+RhprUJcUmYbV3i9gITbnAxewuvvfh30NTtyMcmD0o/SQ/TUGPcStEPHVFfrZLo3iTtAM3xkwhdiCDJZ40qD3gq3SBPG5vbigCvGLuIid54BQ+4qI+FGJt4yAjaYkW6qkk7YRK/zkQm3vpbAKO6r1ugOxGtp2TcMMsGHaxqjBVdmFdwnHxdzuOulK0wpdV1txxUYv+GQeD9SXxhnaYr0+sukP5BBBbSL9g1oMpjiix7XW8/7syvMtNiQ6Q2uMP7vLuRa69/ddwewH4ZyqY59xOMBVey+MK63kxnCvTGFOy8T3DoBi7AP9btXzL1Od4g+TnHYn02U9DbmWDE68z0boiEZxPtIzOCSya/q+qUSD28wR2h3ZlGAAdIkG/Gq5IrVOJne8N6CXBzuX0E6oV2VJzebvhIzwBOEjcn1C6bQG2NVFoWY4rq1cwN0oUybOJfk1bXvZFm5pREYNE6R+zj4m+zlF0s8vsHsO4cZ/xdMdjQn3jLC+3i54/FH4xy6mgL9zEeaHJm/FIFR4xLUnAyGpbtONtsv2MilyKOymcrU+vll6Z8/ZdMN5T2JXOa7XeactZ3kPzCOOxH77wtlQv9mBIbdGhPAoyRavCfxvY2FJpbLYX6d2XuiUMvSpEe402ShZCx9ifB/TYyzf7ofP38iv1cuCyYvsqkP26rIvwyP/0QMdxbq7sv22Tikj4Su9fk392fY2OdLxrXqm6Fnyf/xanVueKwQ2EZeArYGN0Zk3IMRw10ntjeqgPEGcXmQ9xv6OTjOpnVCmvS24HGacc4wrXb1M9vki0lO0XgX0GXQn0Rk4MoI4bKbulJG874ka08D8Y5cYPw5kf0ShXzI5KGgvtw52h/RoCrlyqBWE5388pZJn+hnNWkqDDVZdmryTaIoM207JFu4OQEWyC/gMdwnZPajbwDypXkGuDQCuMNh45xcqAJxBpOtxceyeGHoljPdOL5Euzzm9VU89oQdjzrkUTThjkQdc76RJRGgATh8n5lDq8Blt/Uy3zwg82GWj+GOuXFRJqPrptAmEXh0hAU4+eUG4sIcWAhbFghGYFC12SY77/32xrsHSdw34HMZUF0nXV8gEujBbBSMW4vfMY6HpaacVIBwabM+QcINHLBApo9UN+ibxopX4cJRt3SrfbECLJB5NoabCo9bdnUKXaN6us8TxR6wQD4E/TH+eYNxnOOs1BTa5EbYaLisDpq8AuwC/ahxnO5WWKbVQlt0CWIaFDlggcxoevToGG387ykX2iiZ26O9YJNNYWQYWngjLkxAf28c78TnihAu69wJNpgS5iJN6PGrOJiA0ke6j3G2BAtd6Ld9KesM3Rp25pEFKENl6cTGTfwfGv/uMPkQkmmD1K0cdX05qkJEGoGOJwahPNLCQ108drnc45/ui6C4Xl2HV0hdzmbdwvDdziSxuxmlZfMWdA5InrNNtWK1GkYrj6hs9Cztmgb+08Y517w0TvaM7dU3ssF+jXH8v3pIWXm4+WdaiwIeylSGB0/vX2KcTQG2ONwUeBpl2h9HOyaqqqqMlcIVGwW2wOV/AgwA+MQnGo+UarEAAAAASUVORK5CYII=;" vertex="1" parent="ZyhSuW8kDFmmL4GDzTfD-1">
                    <mxGeometry x="310" y="234" width="90" height="90" as="geometry"/>
                </mxCell>
                <mxCell id="rgny3POMjfnxjg8cLhlA-43" style="edgeStyle=none;rounded=0;orthogonalLoop=1;jettySize=auto;html=1;exitX=1;exitY=0.5;exitDx=0;exitDy=0;entryX=0.16;entryY=0.55;entryDx=0;entryDy=0;entryPerimeter=0;" edge="1" source="rgny3POMjfnxjg8cLhlA-45" target="rgny3POMjfnxjg8cLhlA-54" parent="ZyhSuW8kDFmmL4GDzTfD-1">
                    <mxGeometry relative="1" as="geometry">
                        <mxPoint x="850" y="279" as="targetPoint"/>
                    </mxGeometry>
                </mxCell>
                <mxCell id="rgny3POMjfnxjg8cLhlA-44" value="&lt;span style=&quot;font-size: 12px&quot;&gt;Approve to codeowner&lt;br&gt;terraform apply&lt;/span&gt;" style="edgeLabel;html=1;align=center;verticalAlign=middle;resizable=0;points=[];" vertex="1" connectable="0" parent="rgny3POMjfnxjg8cLhlA-43">
                    <mxGeometry x="-0.7934" y="1" relative="1" as="geometry">
                        <mxPoint x="78" y="1.02" as="offset"/>
                    </mxGeometry>
                </mxCell>
                <mxCell id="rgny3POMjfnxjg8cLhlA-45" value="" style="shape=image;verticalLabelPosition=bottom;labelBackgroundColor=#ffffff;verticalAlign=top;aspect=fixed;imageAspect=0;image=data:image/png,iVBORw0KGgoAAAANSUhEUgAAARgAAAEYCAYAAACHjumMAAAydklEQVR4nOydDYgdV3bnT82IpRIEWwKz8wxGLtUYRmaGdos4WGJadDWuME9kBrUYZ2WPO0hiJm2JJFgGx6omztZ9xLNd9jpIZj1Y7jhYYtuxRBzUghn0ZrdCV6c1SCYe1O51kMKa55IwzAsYpnZXJJVFUMvtvs9qtfrj3Vv31sd75wdNHM2rW7f7X+/Uueeee84W6AFMPzUAYDf7+QYA1Og/s5+1SADgKvvvGwDwzwDQjFztao7TRpCeRyt6AjwYjrcTAB7TLXtQt2z634+wH13ibT4HgE8BIEpa4adJK/wEAD6Og0Yk8R4I0heU3sBQo2I45AQA2Bt4JHmwAACnIlc7W+AcEKRSlM7A6NbwVt2yn9Qt26Y/APAtACjTUi6my6qkFQZJK/xZ0go/Slpzd4qeFIKUkVIZGNNPDwPAJIuhVAXq2bwQuVpY9EQQpGwUamB0a3iLbtlDhkMOAcDTkmMpeXM1Dsg5AJiLg8ZC0ZNBkDJQmIFhOz/vA0C9qDko5EzkakeKngSCFM1Xirip4Xi7AeCzHjUulMOmn84ajldkUBpBCic3D4Yth75vOKTeA8uhbvkCAN5pT9k/SVpznxc9GQTJm9wMjOmn7zPD0o+0AWBf5GoYm0H6CuVLpNr47PdNP/2sj40LsF2xa2zZ9O2iJ4MgeaHUgzH99CQAHFd5jw1YeRxgNTsL3Aqn83omcrWZgu6PILmhxMAYjmcaDnlLcRA3BoBP6E8ckPaKM0VRt2n9huMZzNDQn68bDnmEGZ9B1VnDSSt8M2mFfxIHjUTlfRCkSKQbGJYs967scVewAACNPDwA00+fZx6YKmMTxQHZEweNtqLxEaRQpBoYw/G+YzikKXPMFVDDMhG5mqrx18X000MAQBQZmtORqx1TMC6CFI4UA7NiC/qUxNgGXTo0k1b406QV/m0cNGJJ4wpjON6w4ZBRVhbicYlnpGbigDQwAxjpNaQYGLaUOCVjLAZdOhwo8xfO9NM6y0Q2ZI0ZB2RXmX9nBOHlq1kupp7LQyeiPwaAVwDg32WcC/VYgjggL7anRo4lrblSxyXioPEpALxBjeGWbeZ2GZ4bOz3+i7L/7gjSLZk8GMPxDhrO0gG/rNC39kjkaoUvg0Qx/XQSAFwZY6Eng/QKwh4MC+ieBoCtGe7/OQD85/aU/cdf/M2RyhoXWPZo/g4A5nTLTthWt7BHxzyZv01ac7flzhJB8kXIg5G0FR2zLdobGccpHZJ20+jf51HcwkaqDPdRAXZCOKtxoV+aHb1oXGDZm/k5ABxgcSVRDMMhByVOC0FyR8DALGXoZmGmPWXbVY63dEPkajNJK6yzDGNRXjYcz5Y4LQTJFa4lUsazRX17Bsf002vs+IEoI1iSE6kiXXswtfHZ72cxLkkrHOtH40JpT9nfo55bhiEuGY73mMQpIUgudO3BsJILIqny1HPZg7VQMgfHZyJXOyB5SgiilE09GN0a3mL66QVR48I8l743LrAclzmTtELRXJnvmn76nOQpIYhSujAwNl0ajQqO/0x7auRvBa/tSdpTI68CwBmBS7cAwGnW3RJBKsGmSyTTT6lLf1hgbOkuPTv/89yKei0xywKeiwNypkrtXTMsOd3I1V5VMCUEkc6GHgyr/i9S6rLdnrKlpM0bjvckXaKZfvorALjEvKnOF9NgLWU9wyH/y/TT2dr47CEZ91VN0gp/JJgnc5QVykKQ0rOuB8P6Fn0mcFqYehU7ZOS5mH5KqPEQuHSBncYutUeTIeiLfZeQSrCmB6Nbw1sESxF8HgdkjwzjUhufPSloXCiDhkPmTT89UeaYReRqZwBgWuDSw1g8HKkC6xgYe0iwnu6bMtL/TT89qVt21mLhDwGAbzjkepl3X+KA/JnIdYZDfiR/NggilzUNDOsVzctCe8p+O+uEDMf7joJOBG+afnrJcLxhyeNmhi3jRgXiMXWMxSBlZ80YjOmn/8rZeZF+OR6UFHe5kGFbvBsacUD8slXzF4zHYCwGKTX3eTDsQedt6xpKPLyo+nCfZzhkUvE9uGHxGN6g9CgLxiNIKbnHwOjW8FYA4P7yxcFS4anMmH76tMwatxtw3PTT66afero1/FAO9+uKpBW+w3kJ/VtlPd2OIMpYZWDsJwVqy0Zx0LgoaT55BmN3AgCpjYfzpp8qbbLWLUkr/InAZU+zGj0IUjpWGxje5UkSB0Rmtu5uiWN1C/1yflYbn32r6C8qa81yVODSJxVMB0Eyc0+QV6BuidTjAKafprLGysDTkaudL3ICAscIzkWu9ozCKSGIEF96MCwh7Vs8Fyet8KdKZtUdYdIKxzJWjFuLadNP3zcc75BuDfMGu6WQtMIPOC8ZUjQVBMnECgNDTvB2KkxaYaEnpdtTI+9FrvYoAIywIwoy2LIc1yBnauPhBUljcpG0wp9xXvKQ6acqt/YRRIiVMRje+MtCGdq5wvIWbyh44nsz6nTZaDierHa43SJSP6d0SYQIsmRg2PKIN8A5oWZKYkSudjEOyINJKzyVsZr/agYNh/yD6acndGv4AYnjrgsz3Lw1Yw4XtaRDkPXoeDC89V4XIlfL2vdHOnHQaLenRl4AgEclx2aWzjXlvKXd4Py8oVt2aQ92Iv3JkoHRLZu34j3vw58rkatF7Sl7LwAQALgqcWj6Bb7OzjUpPc1MfwcA+ITzsm8qmg6CCNExMDxvvrgK3QGS1twXkas1IlfbQ70PiUPrywcNyWXTT4nheCqXJR9xfv4RRfNAECE6SySeB5P3rVo4katNxAEZAQDZ2+qe4ZBZw/EOsho6UokDwhXsNRzClWaAIKrpCwMDy/GZMHK17wHAEclB4N2GQ87VxsP/JnHMDh9zfr4056oQhPIVdhq3azc/Dkilm7GzU8sqtrSfZrWDZR7W5P1b572djiAb8hWB8z+Vb1gfudr5OCA74oAcFyiRsBGjAHC9Nj4rJQCctELeuaGBQUqFiIH5Z0VzyZU4aERx0HgjDsgeAJDZ97mmW/abMgZKWnMJ59x000+z9MBGEKlQA/MNzmtKXamflzhotCNXG5F8rmnQ9NO3JAV+eeeEXgxSGr7C+0CWvRWIKCvONZ2SNORR3bIflzDOP3F+voiSFwiyJl/hPCJQqjq2KmhP2X8SB6QOAKcB4HaWsXTL/l0JU8K+3khl4TUwMrNiS0nSmrsTB42fR652LA7I72Q5pc3av+TNwwXcE0HWZNPm9/1MHDSoQd2VIe4k49wSrweD5TOR0oAGZhPYuabfZueaPue8PHPAVWK3BgTJHTQwXdA518SWTDxg+QSkr5F+fqYX0a3hrbplf99wyIucl95RNCUEqQRoYDaBpf5fEGwIx7ukWuv+GFNBKssWtvXcrSvfNwWNDMczdMv+QwB4MUMzOBmJe7wGpud3+pDqsIU9kN2+nfsiS9T00+MA4GXtMhkHRMYRBN45/JuEeyKIFLiDvPTNrmYq5cD0U2pYTkpqYSsjSQ7PFiGV5St41mWZ2vjsftNPr7DtaBk0k1Y4J2Ec3sQ5mQc3ESQTWwROR9d6oWRDB+qRGQ4RDeKuRztytX2SxuL1YPBoAVIaqIFpsnhDt3y9F96SrA/1d9jWs8xatknSCkX6S9+Hbg1v5TQwtzExDykTWyJXu2r63beENhzySByUuqnApph+ehAAzikYmnoPR9pTI1K8CN2yeQ3fFzLuiyCy6AR5efI1KrtVbTjeE6af0uXQtOSh20krfDEOyJ7I1WQuUXhr9fTM0hXpDTqJdp9yFIyu5K6G6aeEcynYLU2J8ZZ7MBzC+7fuyVo9SHXpGBieB7NymaWmn54EgOMKhg7jgDyjYNwOXH/rqhdkR3qPpSVS0go/5bnI9NPnlc1IEro1/JDpp57pp9cVGJerSSscjVxthPWRVgVvdTrcQUJKxZIHk7TCT3SLa5eWfmHfUDarjLDC1xcUeFvUQ9gnOc6yJux34J0/bx8lBFFKJ8j7S87rTNNPDymYTyYMx9tp+um7AHBNsnH5AgBIe8r+7TyMC2OS8/NRr9ZLRqrLkgcTB43PDWepTSlPUJEAwFl1U+PD9NPnWB1d2URxQEby/PKyHJ0652Wl9SiR/mXlWSTeavqm4XjDkufDhW4NG4bjPWf66SUAkNKLaAVR0gr/KA7Io3l7BgLFwpM4ICryehAkE9rK/8f0019zHvI7FbnaC7ImY/pp9xl/ywHNREGbDjrmMdZithCYweTxYK5GrrZH4ZQQRIjVBaducH5hi+zBoyof53DkaucVjd0tuHuE9AT3lGtIWmHAef3jpp/yxgo2orBzNEkrPB0HZEfRxoUFqblKRUiqO4Mg0lltYH7GeT31gN43HE9WcesivigRAOxoT40cK3oXxnA86pUdFrj05wqmgyCZWW1gPhJwtw3dsp+VNJ+3JY3TDVdXbD2XYntXt2yRrX9fcbIfggijrf4H009tAJjlHGchcrVdMiZk+ulnORxH8CNXm1B8Dy5YcfFfcbY6iSJX26FwWgiSiftKZkauFgoUjh40/ZQ3MWxNklaocrt1hp14LpVxMRyvxjKPeYzLHQA4onBaCJKZr67z71t1y+YN3g4BwFzSmsu03NiyzfxH3bJ5+w9tBl1CPBO5WiNpzWVuJSKb2ng4L7Bz9Pf091E0JQSRwnpFv4VqyRoOOZhtOktZxW0Fb+bDkavNSB5TCobj2YJb7rhzhJSeNQ1MHDQWAEAk0WzMcLzvZJ1U5GpnklboZxzmRhyQw3FAHoxc7WLWOanAcDzdcIhIjZokDsh7CqaEIFK5L8i7EtNPZwWLYR+Q4TGYfjoKAO8L9HieiQPyTBw0kqxzUAnLeRHZlm5Eriar+wGCKGO9GEyHOd2yxwDgNznHHdUt+/LtX569mWFu1JO6QY2Fbtn/jxmZBzZY1n0BAP89Dsjx9tTIj5PWXKn7QtfGZ3+4ZZv5nwQu/ShyNVlpAQiilA09GFh+y04CgCsw9o3I1R4Vm9baGI5nGg6hb/zHWLYr9VA+BICFOCDNsnssHVi/6esCnhksL/sapTnFjiAbsamB0a3hh2rj4T8INlxbaE/Z3yvjzk1R1MZnv61b9geCf8+wPWXvS1pzlTCkCLKpgYG71dWuCd5jJnK1A4LX9hwZEgnbkas9qGBKCKKMrnpTsypuotuio6afigQyew4W1BXNUi7lNjuCbMRmQd6VfKpb9g/WKPHQDaO6ZSe3f3n2FwLXVh66LHrg9878fYb2tFF7yj5y59c3/4/kqSGIUrpaInVg28YXMtzvTORqfZXezgK6VwRjLsCykHdgS1ikinS1ROoQudpM0gqzlKY8bPrpZ7Xx2SczjFEZauOzP2S7RaLG5dM4ILvQuCBVhcvAwPJhxD/J2EHQ1C37p70clzEcTzf99F3dst8R2YruEAfkxaJr1CBIFnhiMEuwBLbzumVvBYDHBe+7BQBGDYc8AgDXktZcz7yhDcezDYf8Jf39MgxzGwBeak+NYL4LUmm4YjCrYY3ks3yROoyW9bxQtxiOVzMccklSreDS1atBEBG4l0griQMiq1zAuSovmUw/NQyHvC/JuMRxQLDHEdITcC+RVpK05toAcFG3bJudExKls2Q6rFu2vmWb+Y9VyFY1HG/QcMiJLdvMcwDwiIQhL8cBGWYlKxCk8mRaInVgXzTRTN/1OBq5Wp41ernIcBJ6PWLW5A2NC9IzSDEwcNfI0GXCTlljsu6KH7BuBwtFFrc2HM/ULft3dcv+Lqs+x9VaZANuA8CbdFmExgXpNaQZGLgb6Lwu8cu3mjOsFkpuW7fsHNakQK/objkeuRrGXJCeRKqBgbtG5iAAvJwxLrMRnwDAR3Gw1LD/YwBoJ60wyhK30a3hrbplPwIA3zAcMsjODO1W2OHgU5bnUundMwTZCOkGpgPLB+Ftf5KVkLW//acV/Z0WVmbCstR9k3lZ1JA8zP6vqla0axHHAdmFSXRIr6PMwMDdHkuXsmSz9iDUqJQi/Z/pY68o4LV7Ha2osW6z4l4Ra7Z/o4Ap9x1V10ipgYFlT+YxwyEEAL4reBK7V6Diz7Sn7B/nXYCL9V36tuGQx5mntlPC0i9mS9VP4oBcpQ82K3GKCNCrGik3MB1MP30OAE7ndb+SEUauNpL3Tdly8KSkbOtuoA80waB19/S6RrkZGFi20jsNh+wHgKM5tIctAx/FAXkzaYXn80ocNBxvULfsZ3XLfqrAvzF9iD+IA/JB0grnqpA0mSf9pFGuBqaD4XiG4ZCTkhPVygQV69W8W4soSP6TAXXN95Uh5lQG+k2jQgxMB8Px6JrzRyzHRLRmSlm4AwCX6XIoDsh7cdD4NI+bUmOtW/bzumUfV5h/lBVqcK8mrfD19tTIz4qeTN70s0aFGpgOKzya0RILsBERAByJXC3Xdq6mn9IH1qvY36wSTfFk0e8alcLAdDD9lIrwFgA8XfRcOCiktILpp88DwKm87yuJviidihqVzMB0MBzPBIAnDYc4ADAEAA8VPSdGwvINFuKAUG/l53mfj9Kt4a/XxsNXAOCpim/7X40DcjwOGh8WPRHZoEZ3KaWBWQ0rNj7MgmNFuJp0CfRGHJBzRR5IZB7etR7agaMGew9ri9MToEb3UgkD00G3hnXdsncCwDeZdyMzGn+b9be+QQ1KHJA281Y+LkNKf218dr9u2ad7IBi+GvoAN9tT9jFWX6iyoEb3UykDsxKWQs171ulqJ1oOAP/G/i1cfV6pbLAT3VdyOHIRrVHQvSa5BMd6VLoDKGq0Nn1lYOKA1OOg8XN1s5KLbg1vrY2Hf84SE2U9uJ04UsTSx5dOo2+WQs5S2elD/DXdsgfpD4uPbZU0L2BHKSrlyaBGG9NvBsaNg8ar6mYlF9NPTwCAL2k4+tCeiwPSkLXkY+kFxwHgeYmxsUp5MqjRxvSVgQGA05GrHVM0JamwYGGWpm0rocu/ZyJXa0oY6z7YEZC3MrTGXUllAr+o0eYaZeoqUEGcoifQDbo1nLXdbIerSSs8HAfkQVUPLix5ho0bkauNxAHZkbRCnz2AotBlxhXD8Z6QOEXpoEbdadRvHgxlJO+MW14knFdps7MlhXgB7M1+idUuEeVq5Gp7JE5LKqjREptq1G8eDOWkbg2XtgCW6aeHAGBM8PI7AHCmPWUXusSIXC1uT9nfAwDCtv9F2E2/xIbjlU4r1OhLNtWoHw3MoG7Z3yl6EmtB18mssLlo9ufLkasdSVpzheftJK25LyJXa8QBEf0iUg6zThWlATW6jw016kcDA4ZDynZcfgnDIX8qeOkXAHC8PWX/heQpZSYOGhfjgFA3ekZwiNHa+Ox+ydMSBjVak3U16scYTIddZdqpYJXNPhO5Ng7I4TholL5RfoZe5oVUBFwNarQha2rUlx4M42TRE1jFu4LXUSN5XvJclBAHRDQHaTcLShYNarQ+a2rUzwbGptZat4ZlZjkKYfqpJ5CfcAcAfOraVqW2Shw0rsYBGRUIKurUWy0yOI8abcqaGvWzgYHltWP4wyInwEpTiJTW/GnkahNVeXA7sEZzrwtcOqhb9rCCKW0KatQ192nU7waG4hqOlyUXIBO6ZYsEMOM4IC8rmE4utKfsn7ADp1wYDnlKzYw2BjXqntUaoYEBqBkOuWI4Xp6dHb9Et2yRgNqROGj8o4Lp5ELSmvsCAPYJZJMWZWBQo+65R6N+3kVazQ1WhzS3nSV2PuQa5yncZuRq+xROq2tW1Od5mP3T/05a4UdJa66r9XttfHZSt2yX87bH8+y7hBpl06jK5fxk03mQduVlZAyHnOA94h8HpBTN69iOwewaPb0jADjQTQpA0grfFnh4CQDkaGBQoywa4RJpFYZDRLciRRBxvecUzIMLVnfk2hoPLrBSkbPdLDlZSQLec2EGy6bNC9Qog0ZoYO5n0PTTX5l+6unW8AOqbsJOovLmdhzPu8j4auiDazjkbzapOWsYDnmrm3NEcUCOsVIFPORy0ho1WiaLRmhg1oZaf1IbD+cVJnjxBpXbRfd8Nv100HDIdVYlbTN2Gw7ZtP0Mq9LG9XsZDslr1w81yqgRGpiNoW7er2rjs2/J3mUyHMI7XiDz/rzUxme/z+qf8Bhcr5sPxQE5xZnY9S2OzwqDGt1FVCM0MJuj65Z91HDINdNPL0j0aLjiCHFALku6Lzf0rahb9rRAzdmuWnewJQXP75eLgUGN7iKqERoYPkYB4Nemn16vjc/+V8PxDmYIOPJ+SQppULbirSiSpt918e6kFfLs3Bmmn+YR6EWNViCiEW5Ti7FTt2z680ew7EoDO+r+MTvY1k1AjCuAnGd+TgfWikPkrdjhXLcfpA+vbnEd9amzHlYqQY1WIKJRPxmYBgDsFwjcdcuo4JZmN+T+4LJtztmMrTh4AoP/zDn2SdNPy3QiHjW6H6OfDAy0p+yna+PhOYVGRhVd5yEYjrdbt+z9rCeOzrypG3FAprtNXV+xzSkcb0pa4en21AhP1TbV3ohqUKP7eaKfjgo0IlcjkK2oTlEciFxt02pjpp8+DwCn1vmfu2o1wVzu2Yw9dBZEShSYfppmuGfRoEZr3KMvg7ztKfv3WTpz4XVRu2TTmI7pp3UAeGWDjyy1mmABwTUR3OZczQcZ6p9U2YtBje5nsC8NTNKaux25GvVodmSoQ5obm7VZYdmYl7poEarrlj3N3oD3kGGbcyX0rfj7GeqfVKZl7GpQo7XpSwOzkvaU/UwcLBUB/6TouWTg2xyfXXpLmn56slPNL+M2J7AErONVqtxWAH2pUV8Fedciac0lSWvuLACcNxwySUUoek4CPMT5efqQHq+NL710z2bc5gTWiqPQFPkK0Jca9b0H04Fa9cjVXsjYrU8JCs9DHZWwzUld7rclzqmSoEZrgwZmFZGrnY0Dso0VPn5H4BSpCjbbVv9UcFy9wGDhWnSVtl5SUKM1QAOzBnHQiOOgcTFytT+IXG0b82qKNDSbifrLAuaXNVi4FlU2MKjR/YRoYLqAejXU0MQBGYwDQl1WHwB+yra57+QwhQ3rn9AHKA7Ivhx3YWS/FSHnIlIqQI3uJ+77IC8PcdD4GAA+joPGl/9mOJ7Oal8MMlf2sS5dWp5DHfUu5naVrtcNh6jedlfxVgRWg4eHKIc8JtToXng1+hgNTEaW30yNkLesoOmn/7eLnIgvP244Xi0OGhu+/Vg/m1HDWaoJy/swbMZtAHg5DsjbirY5H+P8/JHNck+yghrdB69GIRqY4vics94IdcEvbvYh9gCDgrek0m1O3ip1qo0LAzVagYhGGIMpDt61eNfBNfYAn+Gf0rrksc3JEzzM64gHanQv3BqhgSkIzuI99O3BVYgjcrUjbKs9a1BRerBwNaw1K88J91zOLKFGdxHVCA1MQfA+vN0EEVdD35Js10sUVcHCezAc4nEmkuVSewU1uouoRmhgioO3vKJu+ulbvDdhD7DIW1L5WxHunjDetLL9SuKAfKRuRveAGmXUCA1MQbBWELyxhKPMVeW9F+9b8kzkar+n/q24dML4fYE0+F8omtI9oEbZNUIDUyy8LTlBt+wfityoy7dkm34mcrUjIvfgRbfsgwJp8DObbQVLBjXKoBEamAKJXO08r1vcKTQuAnuAR9Z5K8dxQA50tlDzQLdskdjDCwqmsi6oUTaN0MAUz1XOzxumnxLRm1G3nxXaOgAAp1nBrWPLRyEavHMRhhVU4u3QGEWuVkQVQtSoe+7RCBPtCiZphTO6ZfPWB/Zq47Pz7amRvxO9L6sfW0g1P90aNll1Ny6SVviBmhltel/UqEtWa4QeTMEkrfC8yHW6Zb8ufzb5UBsPPZE0+aQVvqdmRpveFzXqktUaoYEpGLYLcJhVlOdh0PTTC6w3TiXQreEtpp+eAIAxgcvPFNHYDFAjHu7TCA1MCYhc7SwAvCpw6ajhkOtVeYBr4+EfslIXvEvzOK9dk/VAjTZlTY3QwJSEOCC+YOFxw3DI35T5AV4uaeEdEtnyhWW3e70+QrmCGq3PehphkLckMDf8dcMhIgfghuhbEgAezTlHZFNYvZwrGbppxkkrLEVBcdRoXdbVCD2YcnExQ1lF+pbkTlNXDTvDkqVVbyMOGmWoi9wBNbqfdTVCA1MilmsBL5VVFH2AR00/vVYbn31S8tS4MRzvm6xF74uCQ9wBgOORq5ViedQBNbqHTTVCA1MyWCJVli/VoG7ZQZZEr6yYfjpqOOQy6/8tugz/oKy9llCjL9lUIzQwJaQ9Zf+FhAQrz/TTX9fGZ/9c5PAdL4bjGYbj7Tf99BIAXMjYaiNqT9kvS5yedFCj7jTSMtygUEw/tVlDqm5pRK5W2BtDBOpKZ1wbr+R05GrHJI11D6afPp/xjb6SNgA8GrlameIu64IabQwamBKjW8PfqI2HocTi0AkANOOAhOww3YciOxqG49Ev1BOGQ4YAwJE5v6QVPt2eGsntMF9WUKONQQNTclhL0lmJb8nV0Ie4yYor0f9eWPlmMv10N3s4h1kbD1XzoF+sPZGrFZKtmwXUaH3QwFQA9gBfV9DmokycYr3BKwlqtDYY5K0A9G3VnrLtvGrR5gx1/0l7yv6zoieSBdRobdDAVISkNfdPkavtKur4viJusGBhI2nN3S56MllBje4HDUzFaE/Zv0/fJgU348/KHQA4056y91Vlt4gH1OguaGAqBn2L0LdJxmzSovlR5GpHktZcEdXplIMa3QUPO1YUlk26AwD2Gw55EQC+VfScumA6DsiPWbX+ngc1QgNTadgBs7MAcN5wiAsAJwTaS+RByJrV96THshH9rhFuU/cQpp8ektzvWAaELheKnkRZ6DeNMAbTQ0SudjYOyG8krfAw28koou5IAgBXk1b4YhyQHWhc7qXfNEIPpscx/fQgK4Go+jBdvNxwi7zaLzEWWfSyRhiD6XFY47DzhuPtBIAndMsepD8s4/QhANgqMOwXrHTkjTggC8sN2Bu8fZwRRi9rhB5Mn8Oaa+1kP/9+jXMsEQDcZP83ilwtLGiqfUuVNUIPps9hB9d6Mb29Z6iyRhjkRRBEGWhgEARRBhoYBEGUgQYGQRBloIFBEEQZaGAQBFEGGhgEQZSBBgZBEGWggUEQRBloYBAEUQYeFehzqnzOpV+YaPJpNFkvj0ZoYPoEWSd1TT+FspzU7TWGxpY12j5gDz48IK7RRPNejeanlzW6PI2nqbsGT1N3Ry/XGukVJpr5ajQ/TV69PJ2PRv1kYJQ1Fi8ThuPpumUf1C17FAB2F9BpsFMtbSZphRfjoNF3dXg3Y2jM07cP2AcfHihWo5uL4cytxfDi5Wl1GlXZwBgA8GuOS8LI1UYUTqlw+q3eaxWZaJZTo8m6Go0qa2Bg+QuVcnw8jlxtm8LpFAb1WvqxYn2VoF7L3rHyazRZl6vRV2UOljeGQ45yBMCoqD9JWnP/onhauWE4nkGXQ4ZD6BvxP5Y4aG8CwHHDIY8AwPWkNfdF0RPKi6Exz6DLob1j1dBo79iyRrcW5WhUdQ/m2hpbdusSB2QPa4ZVeQzH22045BL9z6LnIsDhyNXOFj0J1QyNebv3jlVXo8l6do2qnmjH6849pmgeuaFbw1tNP/UqbFwo75h++q5uDaveNSmE7QPDWyeaqVdh40J5Z6KZvrt9IJtGVfdgJgHA5bik8jtJpp9eAIDRouchiRsAsKfXGuBPNHtPo8m6mEaV9mDigPDu5e9WNBXl6NbwN9iSsFceXGCZqddNPz1BPbOiJ5OV7QPD35ho9qZGE830BPXMeC+utAdjON6g4ZBrnJftqNpuBtuSv15AvkSenIpc7YWiJyHKRLM/NJqs82lUaQ9GIAYDVXu7MOMyq/DBpX/D0wBwBABGAGBb5Gpa54f92wH6cClunXGUnYuqHMy45KrRZF3TOj95asTORXVNpT0YWP4CXgKAOsclcXvK3pG05kq/7qfLotp4GEp8cBMAaMYBCdlD+2EcNLh7I1PPEQCeMBwyBACOzPklrfDp9tTIRUnjKYcui559Tb5G89N3Nbo8za/R0NiyRnvH5Gt0czF8+q9f6k6jXjAw1CO5wHNNHJDDcdAo/TYp7zb8JigLcJt++jx7e8qAfpkerUrgl8VcpGk0WVej0URTvkbdBH6rvkSCyNVmAIArt8VwSKmXSWwr+oKEBzdOWuErcUB2qNw9i1ztjTgg2+Jg6e/azDgcfdNe063hr0uanhLYVrQUjW4uhq/MT5MdqowLZbKuvTE/TbbNT8vTaPvA5hpV3oOBuzVNeIO9u1hLztJh+qkHAFlPfhd2epx5le9mzAE5F7naMxKnJZWJphyNJuvFaDTRlKPRZH1jjSrvwcDd3r2fcF52wXC80iV6GY63GwCOZxhiIWmFTpGlKahXGQdLa3/qXd4RHOYptvQqHUNj2TW6uRg6RRkXWPZoZuans2vEll7r0hMeDIi/9aM4II/GQSNRNC0uDMczDId8luGtMhO52gHJ08qEQDLkal6IXE1W7CAzQ2OesXcsm0aT9XJpNNHMrtFkfW2NesKDgeXArchyh3owwwqmI8r+DA9uHAekdFnKcUAaGbdOPWp4JU4pK5k0mp8un0bz09k1ooZ3rf+h0qepV3Fz628d/i7vdpxu2Y8AwHtJa07UTZQCK7lwBgD+g8Dll+OADItsOauG/V3PJq3wU92yqUv+m5xD6HSY2788O6doil3DSi4IazQ/TYZFtpxVc2txWaNbi+GnDw+Ia/Q//8f9GvXMEgmW3XHqkXwmcGnhSwvTT+nyzhO4NGbLvNI9uKvJsJ1dilo+E01xjeanyaNlNC6rybCdHU/W79eoZ5ZIsBxcjFjQipfR2vhsYQFFVonuhMClM1UxLpT2lP0Tttbn9RYN00/fVTStrmCV6IQ0qopxobz3krhGE837NeopDwaWlxq24RCeWr0dEnayN9eta7Y0+leBSxciV9ulYErKYcbiMO91cUB2xUEj99QCtjQS0miyXk2NmLHg1mh+muy6PH1Xo57yYGBpzR9eZuc2eKHryCu18dnvK5jW+je17IMi1yWt8EX5s8mH9pTdYNmgXOiW/ayaGW3M9gExjW4uVlej914S02j7wL0a9aCBmbvDslZF2jLoumVP53nojlX/56XRnhr5OwXTyYWkNUeXsvt4r9Mt+yk1M9oYVv2fl8Zfv1RdjW4timn08MC9GvWcgVnBOcHrqCczm6OR4a1RE/dCfye2FOUtX2qyQH7ecGtUZBKdLCbrYhpNNO9q1LMGhgUURdfrBgBcq43P/qnkad0Da4rGta2etMI31c0oX5JWKLKUPalgKuvCmqJxaXRzsXc0urmYTaOeNTCscv1IlgQi3bJfMf10VmGil897QdIK/0rNVPInaYXnWbdBHkYNx8uzqBO3RrcWe0ejW4tiGg2NLWvUswYGlt3wOA7IvoxZiku7UobjHdStYWn9bFivaF53/3QvdUpkRzSeYTt4PHxb0ZTugfWK5tZIZafEvLk8nU2jnjYwsPwQtyWk0A8aDjlXGw+56s5swhOcn0+qXrB8LSJXa/LGywyHPK5uRvfArZHKkgtFMVnn12jv2LJGPW9gYNnIXGW1SrImO9VNP/216acXDMfbn2Ug3bJ5g8hZa3iUFnZeiecNmUsAfvsAatSBnVfi1qgvDAwsG5mLcUBkRPaN5TgAmTH99DNW+4QbXgPDylz2JGzZx7OM3alwOl/yMKeBYWUuexK27OPWqG8MDOOs5KLIdH1+gXo0pp/ybmXyBip7Zl2/Djy/X15b1ajRvXBr1FcGJg4aSRyQPYLboxtBvZgrpp9eN/30Um18dtJwvEOG4z2+QVGrhzjv8aGEeZaWOCBc+Ramn9rqZvMlqNEK5qf5NJpopnZZG3ErY3nnonHM9FNd5KzFJlC3cKdu2XXduvv8G87Syixa9QbgaWIViR5onGimdQB4ji3tYgB4mwXtMjM05g3uHSPPr/Ao5uanyWnBg30fc36e/oGFlyTsfNFuptlqT+Vr7N+5NKrKgcYMcGvUdwamQ+RqRwzHe8NwyF8CQB67EmYG157LIGwfGN6yfcD+4d4xcniNLNTRiWZ6dX6anLm1GP4VqwXCxfaB4a8/+1r4CvPcVm7d29Tg7B0jp997yf7xrcW52xzD8n45hfqMM6NIDe5TAPCAyBjr0LMB3hVwa9RXS6TVxEFjIQ7I7yhuViUDLtd7+4D9LP2Sb5Divpv+76sPpnXLs6+FrwPA06uMSwfqKbnPvhZyZUHHQYP37Bh38iMzLtcA4Khk4wK9vjyC5UAvt0Z9bWBg+cGOI1fblbTC4wIZi3nBFTzcO0a6Kkjd7edWwlLnv9vFR492sjk54Pk9uWMwe8fIf+G9hoNeD/B24NKo7w1Mh/bUyBsAsEPgcFcedO1hsdae3W6vDvK2AmWp890srY29Y+Qo59jKvqTsAJ6javwKeMGy4NIIDcwK2NGCA1mChyrg7HLI+2bn/TxPHKlMBdWVJud10+WwH0EDs4o4aLQjVxuJA7ILAN4ROINRNLyxia4/PzTmSTuLVQCVbKxfddDArEMcNBYiV/sDAHiwYjsEvN5X159nB9943tRlikv0yxKmVKCB2QS6PIlcbR/1aJJW6LMHNVevhiepjCVDfd7lxz/nTZ7iKF+QzE+TNzjHVlaGgaXxK1vGTDRzSfwrA1waoYHpEurRtKdGJlih7QdF6oRkoOtlDPMy3uny4++wz3fNZF17tctypDMriz93Cc8ZI66xL0834gxVDruhTM3hVMKlERoYAZhXMxEH5DfigAzFwdJ27xn20KvI5uQKlr73kv0XrLfNem9s+u+n2Oe4ubkY/mgDI3OHGpf3XrJf5hlToIgU99+ZFbIWaWvTDWUKaCtBIO2g3beZvDJgBZN+QX/ioPHlv9Mvi+EspaE/wZLdjIxBRi73+9bi3O3JuvYCALww0UzfYollHU5nrVny1y+N0N/50YlmeoL10Om8vSP6/0/WtfMCw/KekOZObLu1ONeerGsH2Nb8+5JPZffDEolbIzQwClguctWY2ehtafppyjGksHFixkRJESS2XHpV0nBf4/y8cDxlsq4tDI15u9hZJH2tmNpkXQsnmvloVCG4NUIDUxxf8KSrG443WETTsbzIuwDX5elGcnm6sdkOGpdGQ2PeoEDcqTKIFODCGExxfML5ed7yjZWC08DEkauJ9L3iBTVaAWcBrniyrt1AA1McXF8QwyFD6qZSLKxrA8/vx/vFF4VLo71jvavR0JiYRmhgCiIOCK8rrfIcTaEYztIuHE/tlVwMzPw0atSBHYzl1ggNTHHwPrw100+fVzSXwmDtW7h+L97qdxng1mii2XsasfYtXL9XJ4ETDUxBxEHjQ4GdkFMKm8AVguGQtwSS1HKpvXJ5WkwjtpzoGfaOiWuEBqZYRJK+eiahi9Ur5s0fiQWKU2WhrzUaGhPTqFOcCg1MgcQBeZX3XJPhcNdYKS26ZT8ncFmuTeXnp/k1EqiDU1q2D2TTSJM7HYQX00+vbFDacj0ORK6mKuU9F0w/pS73r9Ypu7keceRq2xROa00mmmIaTdarrdFEU0yjyfpdjdCDKZikFYocwHvXcLxvKphOLujW8AMAcInzwaV8oGhKG3JzUUyjobHqarR9QI5GaGAKJmmFFwUuMwyHvKJgOrlQGw//UMAjoEvKQgzMrUUxjfaOVVejZ18T02h+mqCBKROsbapIXOG7pp9OGk61qsyxnt4vCly6kLTCOQVT2hTWNlVIo4lmOlm1SoBDY+Ia3Vq8VyOMwZQE009nBU/kLsQB2cNOdpcaw/F2Gw65InAp/d0e5KxNLJ2JprhG89NkD2/tnSIYGvN27x0T12h1bWL0YMrDEcHrBgHgoOS5KMFwyAnBS68WbVwYPa/R3jFxjdYqfI4GpiRErkbd8GmRaw2HvG766fO6NVzK0/HUczH99ALrBMlN0gpPyZ8VP5N1cY32jpHXJ5rp89sHyqkR9VwmmuIa3VxcW6OvZp4ZIpPrumX/kcB1vwkA9a2/dfhf4qDxCwXzEsZwvP2GQ4IMxZ1mPn91R0PytLJw/eEBcY0Gfufwv1yeLpdGQ2Pe/r1j2TR669DaGqEHUyJYhuphVnZShFdMP31Xt4ZFe2BLQ7eGHzD91DMcIvTGZ5yJA/KMxGllhmWoZtJoopm+u32geI22Dww/MNFMvb1j2TSan15fIwzylhBqJNhDLEobAPZFrlZI8SOWRHdJZJtzBVcjV9sjcVpSoUZChkaT9WI0Ykl0mTWarG+sEXowJaQ9tVScOst5mxoAXDP99EptfPZQXlvZhuOZtfHZSZb9meXBTVgh9dLCCohn1miimV75wWuzh/Layh4a88wfvCZHo/npzTVCD6akMC/guqReQTEAPBO5mpIGcobj7WSnomUUvk4AYE9R3hcPzAuQqtFkXY1GQ2PeTnYqWppG3Xhf6MGUFLYtK2v3hH4RLtClFzvBLGdQxzNMPyUst0VWVf1mFYwL3O1HLVUjuvRiJ5ilMDTmGRPNlLDcFmkadbu0Qw+mxOjW8NbaePjnrO2ILBc6YYWUIla46WO6KtusBALrW7QTAL6mW/Ygq6E7xFnlbDNm2lP2saQ1p6K3lBK2DwxvffY1dRqxwk1LGnVKIKwH61u0pNH2AXuQ1dCVrtF7L9nHbi12pxEamApg+kt9fK5IfIDXI1qjn3RNcv+g9ZiJXO1ADvdRAuu11PMaTdb5NEIDUxFq47P7dcs+rbJ/c0HQt3Wzap7LWvzgtdn9Dw/0rkY8nksHNDAVggV+r9H/LHoukqhMQLdbWOC35zQS3U7HIG+FiFwtbk/ZDmviLproVRauxgGxe8m4AAv8vvdS72g0P03sLLk66MFUFNZhoBRndAQ4E7ma6MHBysA6DFRWo8l6do3Qg6kokau9AQAvZOnRXBAzcUCU9MouG5P16mo0Py1HIzzsWGHioHEVAN6m6+Qt28zBHHYwRKHr+MtJKzz++as7GklrrupLh665PH1XI+Nr5dfo5mJ4/K1DOxq3FuVohEukHkLCGSYV0PX7SEnquRSOhDNMKljSaK16LllBA9NjGI43qFv2s7plP1XgTgZ9UD+IA/JB0grnktZc6Su55cnQmDe4fcB+9uGB4jWanyYf3FoM524tqtEIDUwPY/opfXhPihYREoA+tITFh5AumGgWoxGLDykHDUwfwNL8v2045HFWvnGnhDdnzBqcf8KOHHyYc8fFnoKl+X9775gajdiRgw83O24gGzQwfYzppzY7APcYO2y33mG4BVa/pNOruRm5GhqTHJhoims0WS9eo/8fAAD//7BDnqfZ2hPbAAAAAElFTkSuQmCC;" vertex="1" parent="ZyhSuW8kDFmmL4GDzTfD-1">
                    <mxGeometry x="530" y="234" width="90" height="90" as="geometry"/>
                </mxCell>
                <mxCell id="rgny3POMjfnxjg8cLhlA-46" value="terrafom-repo" style="text;html=1;resizable=0;autosize=1;align=center;verticalAlign=middle;points=[];fillColor=none;strokeColor=none;rounded=0;" vertex="1" parent="ZyhSuW8kDFmmL4GDzTfD-1">
                    <mxGeometry x="310" y="329" width="90" height="20" as="geometry"/>
                </mxCell>
                <mxCell id="rgny3POMjfnxjg8cLhlA-47" value="Merge main branch" style="text;html=1;resizable=0;autosize=1;align=center;verticalAlign=middle;points=[];fillColor=none;strokeColor=none;rounded=0;" vertex="1" parent="ZyhSuW8kDFmmL4GDzTfD-1">
                    <mxGeometry x="160" y="269" width="120" height="20" as="geometry"/>
                </mxCell>
                <mxCell id="rgny3POMjfnxjg8cLhlA-48" style="edgeStyle=none;rounded=0;orthogonalLoop=1;jettySize=auto;html=1;exitX=1;exitY=0.5;exitDx=0;exitDy=0;entryX=0;entryY=0.5;entryDx=0;entryDy=0;endArrow=none;endFill=0;" edge="1" source="rgny3POMjfnxjg8cLhlA-51" target="rgny3POMjfnxjg8cLhlA-47" parent="ZyhSuW8kDFmmL4GDzTfD-1">
                    <mxGeometry relative="1" as="geometry">
                        <mxPoint x="280" y="279" as="targetPoint"/>
                        <mxPoint x="151.42999999999984" y="279" as="sourcePoint"/>
                    </mxGeometry>
                </mxCell>
                <mxCell id="rgny3POMjfnxjg8cLhlA-49" value="action" style="text;html=1;resizable=0;autosize=1;align=center;verticalAlign=middle;points=[];fillColor=none;strokeColor=none;rounded=0;" vertex="1" parent="ZyhSuW8kDFmmL4GDzTfD-1">
                    <mxGeometry x="440" y="269" width="50" height="20" as="geometry"/>
                </mxCell>
                <mxCell id="rgny3POMjfnxjg8cLhlA-50" style="edgeStyle=none;rounded=0;orthogonalLoop=1;jettySize=auto;html=1;exitX=1;exitY=0.5;exitDx=0;exitDy=0;entryX=0;entryY=0.5;entryDx=0;entryDy=0;endArrow=none;endFill=0;" edge="1" source="rgny3POMjfnxjg8cLhlA-42" target="rgny3POMjfnxjg8cLhlA-49" parent="ZyhSuW8kDFmmL4GDzTfD-1">
                    <mxGeometry relative="1" as="geometry">
                        <mxPoint x="370" y="279" as="sourcePoint"/>
                        <mxPoint x="520" y="279" as="targetPoint"/>
                    </mxGeometry>
                </mxCell>
                <mxCell id="rgny3POMjfnxjg8cLhlA-51" value="" style="shape=image;verticalLabelPosition=bottom;labelBackgroundColor=none;verticalAlign=top;aspect=fixed;imageAspect=0;image=data:image/png,iVBORw0KGgoAAAANSUhEUgAAAJQAAACeCAYAAADUpyOyAAAahElEQVR42u2dCZRV1ZWGT1VBMSoiCiiIiIKCUURFFFQwOBM7xilqG00cYifB2WBU4hA7QRvNYNIah4iNUZFWQI3zgDMKOCTaEUEFicgoMghUUQN9/nrf8V2Kd9/86tWre85ae7ksqt6979z/7v3v/+yzjzF++OGHH3744YcffvhR+FFmrbW19tY6WdvOWndrO1rrETD9f1drna11tNbGWrmfPj8cgLay1s3artb2s3aEtVOsnW/tcmtXW/ultWuwK62NtvYDa8dZG2Ztd4C2NZ9Z5qe35YAk1cNshQfqBYCOt3aJtd9Ze9Da09besPaBtfnWPrf2hbXF2L+szbE2y9p0a1Ot3W7tCmsnWRtsbSdrHbznKp2hB9XW2raEod7W+lkbYK2/tb7W+vBv+p12hDJ5ooHWTrZ2vbX7rb1sbZ611dbqrG3K0OqtrQN8r1l7wNpYa8fi9eS1Kvwja57epy2g2MPaYdbOJiTdbO1Oa/dZm2jtbmt/IFSdRRg7ytrP+L3X8DobswBQKtNnLrT2rLWb8Fp9AbQPhc3EGyl87GxthLULrN1m7Qlr7/LwvrJWjbeo56GuITy9zcN9ztr/8fP6AgCpsdVaW2btFWvjrI2EzHtvVWSPJCAdDSGeZu3DJgRFvoC1yNoj1s6DwLfzj7dph97iLmRQV0GUP8MLbSpRW4e3vNHaULyuH00w5JV2s3YmpPmTAnGdYnmrz+F4hyFZ+FHAENeRtPtaa2+ReW1qYaZQvZyX5WgkDD8KAKZtrB0O4f6Ut3lTC7aV8KrvkAH6kUcwbYvA+JC1JSVEuHM1eeDJ1g42MYXdjzwMeaYTrD1ubVVEgBS05Xjl/sYr6zkPqcj/Zu0xpIBNETSp8/ORRXb0kMh+tIeUTm2h5DsTq0GkPdvzqeyG+MIQE1smWRVxMAV1KnnqA4xfoslolKMz3QQB92CKywnSqK4zsVorP9Ic21u70MRKQOo9kDYzrQS8AhXwa35pDFU3qijt5RakfhdC9LzV2g4eLqn1JpWd3BHhjC5dgq7ivRM9l0otEaisdq4PdSm91AoTqyD1yzJJiLgqB1R+UuVBkxaXUv3WUA+dxEOlKCruX+y9U9pip9YzL/dLMom5k9aqnvREPCP72sTq03fxENqSO2lXySLvnTIm57Mh534Exv7W/tdzp6zI+RcIna08jOK60zkmVnVZ50GSVdi718Q2N/hhYhsMfm9trQdH1tneM9YO9FCKjRGkv56MZ8+j/m5i9fWRH5XWzrW2wIe7nHiUpJZfeR5lTE9r442vdcoHj5pgYovqkR4HemU8L7bBxOqk9o46oLTp4B14gAdGbsRcXV6+HWUwqZbnx0UWM4M9DtaXMKA2InCeHGVAqeJQRffFLO9VqP2QcPF2CXtK7U9UMeJPogwota/5M4SyWN5pERrYKLKkBSW69FPHdxkbZUCp0P4RCGWxiOxL1r5nYv0DBgPwZSXqpdSu6LcmwmXBEjSfLVKG5/a5qUOd2h6q2qEDpFb9BFaWqHRwl4lwwZ2K7F8rkkIu3WsqoHY7cQUqVT2oi536aH5ZYuFPW6y05ay7lwyaPiPShsnzQ97mjniqe1Gga0sIUPKuO0UVUKda+6iJH5hCnVogqt9mvyT31g5OdQvZUy5huZ7r1jcBoORZI1tsd2YTr+HVI1FMaRTqkulkvU2siesLJrZ1KRvw65pqPz2Xh14oYElHm0z2HMlxhonVRDcVoORlZphYM/pMWg0qBB6KV5sFt6rJABhqAvtzQuwT/H1dgQClrLl/VAF1GiGvKQBVQ+jSJogeWdyrCHsX9Ko/mljT+0VID6nCmTzTBVxXdfP/Y2JVlrUFAJQSjW9FFVAnEwoKzaFq4U3qSb5njvfsuugNN7H+5lNJLBYRzmoCAHMgk0fSxlV19lW5jprq30q4z2dC4haI94kqoL5HtlXILK8OoVLZzzCT32ZdrcmoRgGuv8K13gMsK3nI1SzrnIWXqwBcagTycR5lEweoQVEFlPpGvlVAHaqehzoNbamygN/FaVjfQg651MR29T4Ab1LLa9V97ct96Pf7IKzOydMcOA41IKqAktbzfIGU8jqWIp7CExajiXwZ15UX248wuXeje1E9/ViIe6791Z1s0DuqgNLbOsnkv2ykDs+kTaMnmubfPF5Vqzql6v0cQbXORHz3i1z+n0x+d7u4s1OmEXpK5SQC9c28zMQ2G2TrsbWWp0OPItsoX22irzX5q4fS262jOXTa1JEmdtpCKQ31erqYRCUbUK1B0ojsRgVlSaNN7uUidbyd7yM+Di7hSe3OnLydIahcAjLeRHgohT/PZF8CXI9XUg9O7etTC8VdIMPlgKp1CmuVJymhLIPrVZjkTcLEgVR5OTsDUGkulppYkWBkh9LsMXio+gw9UjWC4WxEwiPhDq353J1I4fclw0pkg0ixewb+NtNucAJHe0DQD1Ex7Hr7kuUJ9Cp/bpPketoOpf2KM9JMWlzF5jUmwh3t9ADuMOmVANeh1azDI0m/UjHZGQCiAiAN5Gd6U+9GB5oUYvdzfYmSOpB6T4BVnqZHCp7TdynAnkjqnuh6upcJCJoCy0HwyIokHFPrjq+a1IvKru/mjQXW25r1GIqy69bDNkAs1wKytfy/9CR36uaj8CQBoBcPv5w3ehQg+xTw1eDJqhJYNVaDB/iniS3N6JjYLineclfdOYh0/xUSi5rA54Zd092X6qzUbebfTWyNLwxU2/BdX2A+6k3qphndogooPbyXmGhNxhu84ZOY7If4///GlZ9B2Ni60cPtjHj5NG/yBrzYB3iyGQnsTROrHJBKvSIQQh8GmFsnue823IeAPZ+/Feg/BvRvJrmmZIHPuU+BbKaJdZ7ZLgmI5TV1NMkTXCdsMX0DL9zAqALqGEC0kUm+ghDSF26zO1yoY5IwVEnomMyErgUo8jYqF/m+iR0QnchOJ02/B6V6A2FDoXJ/OFUlHKk9QGqFEq0TROcBik8B/xg8Ttj1TgE843iRvuLvXzSxpaE2SeZK1x9p4idxJVr/dJ81MqqAOpY3150QfpHJbImkjFA3hhBShUf6iUn/gJ1KwCsP+CH38j4Z4wAkiKMAv4CrWiOp788DwIWAd3AGuldnwPUcnsp18+2WItQKcNopdDvesCqBDjcDQTeS4ygIZzUe6tIMASXesZeJrfLXAarfmMybwbeGD90FF1LoewqSLeKuLd4vEw5vhXT/izAtDnhYCu8SRrhVCbrAxNT9F/GKqfQz/fsevABvBribq5WfQfiP5Bhh4tuolhNGMgFUJaCcbuInNZ2eg6Co8Odq3NdzX0GiXct/Xd3T52RVfbLUrQ6B0Osz/0F4bpvm33YjvD6Elwwe2XFMVAHlNnqu5yGNgy+lO+QVTggIgC/lMJnyGGfxWS4NX4cH0c/eAUBVgUzrY8JttsdjDAp8/3mE6kyOLdPvHgx/dBxKneyGRRVQ/SHAXxOy7kAgTFeYawvZfacRuc1mdEbzmcXDWUv4+DXZ5Q/hOcHFW4HgcpP9PriBeJh1EPuLTGaL2WVwxf808XqohwmJkRzd4Tyu2djDiIvlRQZULbrUGETTsgB30f1+VgBAzSfkZgqobvAptzh8FzpaJIcAcYGJn5zwOiGrVZEBJY/5N8h2WaMQ812kjuYCKHf6RLAtYqSPPAvuHhZfGZ0BMU8EqKNzANSZJr5NSjtT9mv0O+VwlucCHOryHDjUPvCf9SlCXlmI1y5Htxtv4o1bf2AiPgaRhq/H/gQvKGuU1m+D5rRV4A1sQ4o8iwzndTxINkNK9Xk8FOlCfzFb7h7RPamF49N4BHmVXxIWsxnSrh5Hz/oYGaF9oxdmB0DTNSQp+TZZ7noT8Q0KbjiXvYSHpMk5vFHY60mKPIaQ2DkgGxyBZ3INt35qMq8f15uuCoDrSMGXIR4m2t8mrWgqms9yEom9TeYlMLp3HTLpmpx9gOQRlA0GcE//hSduDG6F2l/wAixBwtg66oDSg9A61UwmVhNzfaM3cjDp9WI8mNN9nLA5kb/VUsa9/H67NLPFCkB9HN5iPaH3ejxDosz0dsKiU6bPghynw13K8Cz9AYDb3j6ddL91IzogsEi8vDkBnzuKl6kaXne88aNhiKu4c14kH0iVHsWklTHRzwCa+wKAKiNUiccs4t91vIeWQkYCiG5JTOGkH2//RADrHs7pIXymG4nEBya+GeJRuMsefGaya2ptUks4Kn1+H08n0NyaINSfAJiUJPyRf3M7afbHO67mJbzF+ONivxlu+cR1slsFcA4hvB1p4ucPTzCbt6upBHCTSJudgv0kutF1pNWJ7Aa8zUt4CpcY3GLC97bJuwwFgCsA1SpAeCeaUNj1XPh6BOBvxCNqXfA7ZkuV/LuE3yo8bydAMxyALeIzXoUm+KNiA+nzA2bzxc4l/OxHJtZo4u9M3t1m84VftzX8REDkGlnU8bBW8uAT2VcBr1gFmO5BLkimWEtV/z7SwjITb5xRDbjCrvdlQMSt5XeVSJxvEpevjAI0tYBeAquWp6YxP65kZSJz4Ecg05tktlw9XwOQXCq/EeFuhwQ8bDve6AmEo2U8MFewl8hc8Z4aV7wFTzksDWLrBMWTuJ5C19I0r7cacM0lzIt/9Qgh9UeTSbpqzLfxvsHSlQ1kpG08jBJzqFSd5+4K4Qp6yB0B57mEFr25DxNiEtlkPJJC36lwoHRLUNzWc9372SZW1juR7xF2Pd2Lqhd+j942DM8SFqqOQk5IVqW5Ac1sKw+jzVPxh9MAVA1vY48UD7oDhHwQutHQBCZiPISUv4fJfg9fGeGxF7pV2PXcNQXAXQFjeRrZ78IUgKoCpNt5GMWHqg6mpAkoeYA9IzAnIuAXmtSHKmnOHjLpFxRGYgyBaKba1y8yq2WWU0zLXq8q46W5z6RudVRFOO3jYRQfCgWPmfQaRXyFHNCS38h2cLq5JvV+xWrmboCHUXwMJQVPB1C1ZGQnttDMphxw3GnSO2FCc6Zy5X09jOLjYDSkdADlOvneA6EuVA8DhZ3WEO6tINEdAHFFAa+pJaefpZHdBTPfF3gp/WCow+4zJv3eSOJSKve4noypVZ48QxvSeMkSu8HtpGCruayWYlTZMMLElP3ePHwBrdLkrlLr+hJM1Xf0JZN+Rzv9nurIR3oYxYceUqaHWLsV+isD+lFZFh5I3kciZT/uQ/vmVJWppSBtoNDOEm1+UN9MCawvw1kUksYCtIMgxV1N5j0SygBkT3iTSmO+znAedI/HeRjFh2p6XjSZ95mUR5sDSR+JntQxxGM5D7Q1D17lKqpK0BLKtQBIYFHp7xL4S30SHifVW1uppORrLU6K+dV83hA85w54nY4A3nVfaQ3x3gYgDeNv3zCZH/Xmdvuc6mEUH4eb+OJvNh3rFvNQb0RSEFD64jX6EL7Et7SscgYP7248kDyP2xqe7QkHCsFrESHf416U8msXz2ju6XA82WD4zjF4w/F4pfk5fH+9BOd6GMWHlhhyPZXK9YmSx5hOWJLgpzXCqYRU1S69z4NfYwrXH73OxLvEzOOeFJZe5cV5lfCpncpLc/zejk9e4mEUH8cy4fnqV17PZ23ANprSPKUz3e+qxe1rPIziQ4RytvEno2cLKIm9NxtfD/XNOB7uUcxz6QRmlcgswMTLVhNKXf1SFRrYYjjPJ4S1qiKDSkT+zybCjcYaj5NM05z5kuowa5XGaCuVapSuQjxV9vkOHvRZfucKsirpUqrQ/KjIIVWFhCqd8RUHDLduVVekB7IRDncaOpLTpnYlO1R5zX4Imk5v6oAUcAgJwPoiAko88RGyWT9MrMB/QRHfcoWxyVkuX+xG6v9FEQFVjfRwgIdSbJzNAykWoBZDancLqNcSQbVBQlUNO7PUIqGyk9l8q5O2YP0YLWhTET2sZJejPZRiD09F+iuK+ECk41wGOFz1pURQFbi5BmMPoshLQDwQVd61SdSDfL2IIbuGpOYMD6fYUsSFpL7FAtQ8hMHdkTD+gPC4iPv6GlMW+Bng+R2/2wcV/GmT+2lSuYibn3hxMzb0lo8xqUtdC2lSq6eR1b0DiGpSeISVeIU74VCziwgoUQXt8vmN16JiPOValkKKBSjJFW6bU02Gf7cGz7WhyNLBWsDdIeqAEtG9yeT3iLMo2noy1V2iDih3Zt7XHhQ5WRXCa+QrN7W7Y0KRhcGWYBtJJE6KOqBcq54NHhQ580DVoV8UdUBJ73kuQYbkFmQ9WLYEzoYESUA9ycF4E+ETPQ1aziw4wFpUa+lCakD2D0/WtwCTdDD1o3qM+dGS1XIAJh6qPgfdowwola5oG9AbcCk18zoUJXqEiW1RX+fB1OCxVcN+A5mx6tH7Mn/XoqPNRksbGGVAaVKGs14W3PfmeoOPRIWOMsdyLaPH432ceOmOwVXVQyeUfu1x7B1lQLkDFMMUXi3EqqD/xYiCyqngWg7qmUIJL+dlLDd+JB1RBZUDk9of9vLLKoUB1QsR0ayCYNrZgynz4TrcVpjwY+gFKjVwfaaFE3UR8CWEuUSeyTU5czuVW3nAxSfGHVPfDYKuzZAque2cBFTaafx4C5UUJA18DgHvGQIm7UY+gd/R6Q/DmDvNYbsUnLTFAajcxI/akCtXrbZ21qonpjZBqtBOmzFVBRl2OrneSNVyq5vdKtNy9typ0kG7aX6NNBAGJlW4zgmExpXM3U0svQwi09uGuW4xACsLZB7tSXn3QB2X3nQ/ywWJ6oi0Cyas3bIDlSonXb/wUgeV5kC7Z8aaxGcGupOnBKZ/JuFdEohVbPcAcyxJph+f2bYUwRX0Qp14UxTC1KZmHJnacpNeuaxOKtcpl9snAZXextvhHHWmNMm3MldtV78ED1SWQA7Qi3VuwDOlGz41L08CVO3Q3pMXu1mDq3EoU0mKyijUDOIvJn6EfTYTrgm8EH5QHgKqAfCJhaa0dh/Xs1zyBmDZOgRMXfHWH+VI9F1ovB5wDeBlbdNcwOVIdUeykYOYGMn/H5r87ajV2t7PTXiD+ApArKPG5hI+6ksATCp7fg4O2SHke4lLjYYa5JP4y3OpleIYkpw+Jn50XJMDSw+1EjesI8DU71LN3N8rkEbkzqa7hhAa1v9JgFP5xrvcR73J38p+bR5BWkvYV2/2o0ziHun6jjrT5jITP02hUHVUemG1I1obXffiuVY2BbBc067ueCOFoseaiL/Um/ix9v1M4n387nSqH5pYy5w1OT4IbVaYSZiQ53O14xtN/HyXbDI5fY+7SSoqQ6QR7Vq+mt9tCm9bB8ifhMwfQKhtXQhguY2PO5Cu/4JJXl2EMKEdKioZHmgSt0F0R2Ycj1a1Igewf0IYPRSQ3mbtCRPrgfkunKQ+g3uvApjj4S+tEtx7W/5tnIkfStnUc7yKFYmLSai65Es8dSv+24LYK3jz1xaZe+hB3gvx7xjyRSXwjTCx+qBFGZD1ekKSvJB2M+tMusEm3s7Q6WcnMOk1aX6m5mw2nKWX2bKTsDtSZH+WW1YWmQe6eX4K8XQP7q88FzDpoWh7tnoPTMElNgeyW084ewQO0jnkiyqcqH/3LZDaqjTuvwrOouYZbxEC/gPVOggCNdH4axovl8uunkdD2i6JVx3OC7DGNJ+kwomtt7Ps1dVk0VbbfcED4SwfNtN0XMT7WbKksCNaW/FSyLu+TZqe7GF9wRqadgMfgWJ/DiE2yHd2x5MsS/Ew9HlqzTgKb5qIl7ojaqc044XvddCc8/DQrTMBk974o3lblpSAwvwmOk2vJBmg+N+P8BRfJuFV8+AO26aYJ13rOhMryQ0TK+cBuiEhmVwFCc4ZJn52cHOfa5UdX8kLVZkumHSQ4TTIWamsgWmp5ipifZuQsNIJT/GA2fIgw+DhRKea1IX+EgR/mmAZpI6QNYssrV8I+dbD2AWNabbJrXFrUy9eK1m5gblunSrMjYKblAqYgl90gbXfQqKTkfUh/N4cs/nuEYWbpwl3qUZHlpNmJ9CXnsIbdktSeiK951rU71LrLVrDfV9J+EvIqdqgLU0wxW2tk6uWspQF4yMIW+UhOo/KPS5n2WMVf7uCpaJBaQCqFYvcLwKkagAtmnCMSXzCZjle8mATP4S6rkTnuhpOek4ielCO+x2LOyv1SsfV6EWnoZ6H8aquhLcpkGd3fsxOafLNfSHcS1klGMfP2oTwJV1Pp3ROQjQt9QqJNczdiMZ8Sm+TGpBOL6FYnk7fyTdZiukbwqtc6HLH1os3nmWSn4geHPrcXwGq0SwLVYTwpd7IBi+YllNtWs+C/DXIKt98YTH2m01x+0QWap1qDtLHYF6cML1qd/jj3hnIK11YORgWUnbixMq9SBjeK4FMLhvpRgvcI10kaEfMf960zMbztXCVe/me24eQyLIsSjiS/U05GbPCwa3wq5a6tX4+kaChrfWOlIbMbaFfNrg+9RRrcr0LtegZIP09EFwnm5ZRUZpqEX0Cnvib40i/asFfOMirZqMP7UM4yieo3HJVf97YV000ttErjH9zCORwtJeodDqpIZu7Db2pi8nPka8uxB1CNcGcFpTgpGMfsebbkDbPjNAXdyFQYehRJqF3DgVl7mTQnoS4B5ER6iI2pwspa2ookvswYl8+uOD5ForvICSE8gzB1IGq1Utw+1FtP7SUqo4GHWVhRCfBSQufUPd0LIu16TTsqiBcjqQ6YW7EQlwiYq5VgobJWB7hiQh2f3uGBd/+kOuyJNWrWlk4s5nViRX7iDXNRUNt85qIT0awuO59RN7DEhD2chbQB6MOzzS+GVowg9YL2VDKUeUnZItGFVPQrPpQy1SJZqclqntauFCZLXVQAV5DqYqfmMSEfRaLxcMpebmYtbhVfn4Srkho7bRhG1S9n5BQzWohdeVT0Fqq/byEena9gA1lHn5CUk9WnX/xUs6R6qMa1rf8hHjLR6asvYoNyy5+QrzlA1DveEB5y3vI84Dyli9AzfYcyls+ZYOZHlDe8gmoGR5Q3vKp2b1mEO38hHjLx9LLK17Y9JbPMuDpHlDe8lmpoXVO8zc/Gd7yBKjnPKC85b0eSqcZLPPmLUdTVYZ6NjTsTzvcm7ccTRWu+/w/AIQDg+vD0iwAAAAASUVORK5CYII=;fontColor=none;noLabel=1;" vertex="1" parent="ZyhSuW8kDFmmL4GDzTfD-1">
                    <mxGeometry x="30.95" y="227" width="97.42" height="104" as="geometry"/>
                </mxCell>
                <mxCell id="rgny3POMjfnxjg8cLhlA-52" value="Developer" style="text;html=1;resizable=0;autosize=1;align=center;verticalAlign=middle;points=[];fillColor=none;strokeColor=none;rounded=0;" vertex="1" parent="ZyhSuW8kDFmmL4GDzTfD-1">
                    <mxGeometry x="45.94999999999999" y="331" width="70" height="20" as="geometry"/>
                </mxCell>
                <mxCell id="rgny3POMjfnxjg8cLhlA-53" value="terraform fmt&lt;br&gt;terraform&amp;nbsp;init&lt;br&gt;terraform&lt;span&gt;&amp;nbsp;valiable&lt;/span&gt;" style="text;html=1;strokeColor=none;fillColor=none;align=left;verticalAlign=middle;whiteSpace=wrap;rounded=0;" vertex="1" parent="ZyhSuW8kDFmmL4GDzTfD-1">
                    <mxGeometry x="540" y="327" width="120" height="50" as="geometry"/>
                </mxCell>
                <mxCell id="rgny3POMjfnxjg8cLhlA-54" value="Cloud Platform" style="ellipse;shape=cloud;whiteSpace=wrap;html=1;align=center;sketch=1;" vertex="1" parent="ZyhSuW8kDFmmL4GDzTfD-1">
                    <mxGeometry x="800" y="220" width="178.33" height="107" as="geometry"/>
                </mxCell>
            </root>
        </mxGraphModel>
    </diagram>
</mxfile>